<svg id="Layer_1" enable-background="new 0 0 512 512" height="512" viewBox="0 0 512 512" width="512" xmlns="http://www.w3.org/2000/svg"><g><path d="m504.18 213.016c0 49.85-40.41 90.26-90.26 90.26-6.22 0-12.29-.63-18.16-1.83h-.03c-41.13-8.42-72.07-44.81-72.07-88.43 0-46.62 45.73-108.2 72.09-139.82 10.67-12.8 18.17-20.7 18.17-20.7s90.26 95.02 90.26 160.52z" fill="#ff6e6e"/><path d="m504.18 213.016c0 49.85-40.41 90.26-90.26 90.26-6.22 0-12.29-.63-18.16-1.83 41.13-8.42 72.07-44.81 72.07-88.43 0-46.62-45.73-108.2-72.08-139.82 10.67-12.8 18.17-20.7 18.17-20.7s90.26 95.02 90.26 160.52z" fill="#f44e92"/><path d="m188.34 213.016c0 49.85-40.41 90.26-90.26 90.26-2.75 0-5.47-.12-8.16-.37-3.39-.3-6.73-.79-10-1.46h-.03c-41.13-8.42-72.07-44.81-72.07-88.43 0-46.62 45.73-108.2 72.09-139.82 10.67-12.8 18.17-20.7 18.17-20.7s90.26 95.02 90.26 160.52z" fill="#ff6e6e"/><path d="m188.34 213.016c0 49.85-40.41 90.26-90.26 90.26-2.75 0-5.47-.12-8.16-.37l7.53-6.99c9-34.72 29.67-71.99 51.68-104.68-10.4-42.6-46.81-91.15-69.22-118.04 10.67-12.8 18.17-20.7 18.17-20.7s90.26 95.02 90.26 160.52z" fill="#f44e92"/><path d="m385.85 330.326c0 71.74-58.15 129.89-129.89 129.89-6.8 0-13.48-.52-20-1.53-62.24-9.62-109.89-63.42-109.89-128.36 0-70.9 73.45-165.79 109.89-208.51 12.01-14.09 20-22.5 20-22.5s129.89 136.73 129.89 231.01z" fill="#ff6e6e"/><path d="m385.85 330.326c0 71.74-58.15 129.89-129.89 129.89-6.8 0-13.48-.52-20-1.53 62.24-9.62 109.89-63.42 109.89-128.36 0-70.9-73.45-165.79-109.89-208.51 12.01-14.09 20-22.5 20-22.5s129.89 136.73 129.89 231.01z" fill="#f44e92"/><path d="m312.316 304.563h-33.922v-33.662c0-2.468-2-4.468-4.468-4.468h-36.18c-2.468 0-4.468 2-4.468 4.468v33.662h-33.675c-2.468 0-4.468 2-4.468 4.468v36.019c0 2.468 2 4.468 4.468 4.468h33.675v33.662c0 2.468 2 4.468 4.468 4.468h36.18c2.468 0 4.468-2 4.468-4.468v-33.662h33.922c2.468 0 4.468-2 4.468-4.468v-36.019c.001-2.467-2-4.468-4.468-4.468z" fill="#e9f5ff"/></g><g><path d="m490.084 143.187c-1.974-3.641-6.526-4.993-10.168-3.019s-4.993 6.527-3.019 10.168c13.34 24.602 20.103 45.691 20.103 62.681 0 45.633-37.27 82.758-83.082 82.758-8.914 0-17.642-1.389-26-4.131-8.352-30.493-25.961-65.616-52.682-104.989 14.813-48.931 62.503-104.991 78.685-123.052 8.715 9.712 26.551 30.409 43.393 54.988 2.341 3.417 7.008 4.288 10.426 1.948 3.417-2.342 4.289-7.01 1.948-10.426-24.047-35.093-49.28-61.673-50.342-62.788-1.414-1.485-3.376-2.325-5.428-2.325s-4.013.84-5.428 2.325c-.725.76-17.975 18.917-37.592 45.042-21.901 29.165-37.419 55.681-46.298 79.064-31.624-44.025-62.891-76.954-63.211-77.291-1.416-1.484-3.377-2.325-5.428-2.325s-4.013.84-5.428 2.325c-.32.336-31.553 33.229-63.159 77.217-8.884-23.365-24.392-49.857-46.271-78.991-19.618-26.124-36.868-44.281-37.592-45.042-1.417-1.484-3.378-2.324-5.429-2.324s-4.013.84-5.428 2.325c-1.063 1.114-26.295 27.695-50.342 62.788-2.341 3.417-1.469 8.084 1.948 10.426 3.416 2.341 8.084 1.47 10.426-1.948 16.842-24.579 34.678-45.275 43.393-54.988 16.173 18.05 63.819 74.057 78.66 122.969-26.761 39.419-44.391 74.579-52.745 105.1-8.331 2.723-17.029 4.103-25.911 4.103-45.813 0-83.083-37.125-83.083-82.758 0-16.99 6.763-38.079 20.102-62.681 1.974-3.641.623-8.194-3.019-10.168-3.643-1.975-8.194-.623-10.168 3.019-14.541 26.821-21.915 50.315-21.915 69.83 0 53.904 43.999 97.758 98.082 97.758 7.54 0 14.969-.846 22.211-2.519-1.278 7.525-1.934 14.735-1.934 21.607-.001 75.618 61.727 137.137 137.601 137.137 42.956 0 82.67-19.455 108.96-53.375 2.537-3.274 1.94-7.985-1.334-10.522-3.273-2.536-7.985-1.94-10.522 1.334-23.428 30.227-58.821 47.563-97.104 47.563-67.603 0-122.602-54.79-122.602-122.136 0-79.207 98.198-192.544 122.602-219.481 24.403 26.937 122.601 140.274 122.601 219.481 0 14.196-2.42 28.099-7.193 41.325-1.406 3.896.612 8.194 4.509 9.601 3.896 1.405 8.195-.612 9.601-4.509 5.364-14.863 8.084-30.48 8.084-46.417 0-6.879-.657-14.096-1.937-21.628 7.268 1.685 14.726 2.54 22.295 2.54 54.083 0 98.082-43.854 98.082-97.758-.002-19.516-7.376-43.01-21.918-69.831z"/><path d="m233.401 395.148h45.117c4.142 0 7.5-3.358 7.5-7.5v-30.629h30.89c4.142 0 7.5-3.358 7.5-7.5v-44.956c0-4.142-3.358-7.5-7.5-7.5h-30.89v-30.63c0-4.142-3.358-7.5-7.5-7.5h-45.117c-4.142 0-7.5 3.358-7.5 7.5v30.63h-30.643c-4.142 0-7.5 3.358-7.5 7.5v44.956c0 4.142 3.358 7.5 7.5 7.5h30.643v30.629c0 4.143 3.358 7.5 7.5 7.5zm-30.642-53.129v-29.956h30.643c4.142 0 7.5-3.358 7.5-7.5v-30.63h30.117v30.63c0 4.142 3.358 7.5 7.5 7.5h30.89v29.956h-30.89c-4.142 0-7.5 3.358-7.5 7.5v30.629h-30.117v-30.629c0-4.142-3.358-7.5-7.5-7.5z"/></g></svg>