<svg id="Layer_1" enable-background="new 0 0 256 256" height="512" viewBox="0 0 256 256" width="512" xmlns="http://www.w3.org/2000/svg"><path d="m19.528 232.413c-.274 0-.554-.018-.833-.055-3.435-.456-5.85-3.611-5.393-7.046l8.402-63.228c.456-3.434 3.607-5.852 7.045-5.393 3.435.456 5.85 3.611 5.393 7.046l-8.402 63.228c-.419 3.154-3.114 5.448-6.212 5.448z" fill="#ff9f70"/><path d="m19.528 234.413c-.37 0-.739-.024-1.1-.073-2.188-.291-4.135-1.417-5.479-3.172-1.343-1.755-1.923-3.929-1.631-6.12l8.401-63.228c.291-2.19 1.417-4.137 3.17-5.48 1.756-1.345 3.932-1.924 6.123-1.631 2.189.291 4.136 1.417 5.479 3.173 1.343 1.755 1.923 3.929 1.631 6.119l-8.401 63.228c-.542 4.095-4.065 7.184-8.193 7.184zm8.382-75.778c-.934 0-1.834.304-2.587.88-.905.694-1.487 1.7-1.638 2.832l-8.401 63.228c-.15 1.132.148 2.254.843 3.161.694.907 1.7 1.489 2.832 1.64 2.401.322 4.493-1.373 4.799-3.674l8.401-63.229c.15-1.131-.148-2.254-.843-3.161s-1.699-1.489-2.831-1.639c-.192-.026-.384-.038-.575-.038z" fill="#690589"/><path d="m56.836 232.413c.274 0 .554-.018.833-.055 3.435-.456 5.85-3.611 5.393-7.046l-8.402-63.228c-.456-3.434-3.606-5.852-7.045-5.393-3.435.456-5.85 3.611-5.393 7.046l8.402 63.228c.419 3.154 3.114 5.448 6.212 5.448z" fill="#ff9f70"/><path d="m56.836 234.413c-4.128 0-7.65-3.089-8.194-7.185l-8.402-63.228c-.292-2.19.288-4.364 1.631-6.119 1.344-1.755 3.29-2.882 5.48-3.173 2.197-.295 4.365.287 6.121 1.631 1.754 1.344 2.88 3.29 3.171 5.481l8.401 63.227c.292 2.191-.288 4.364-1.631 6.12-1.344 1.755-3.29 2.882-5.481 3.173-.357.048-.726.073-1.096.073zm-8.382-75.779c-.19 0-.382.013-.574.039-1.133.15-2.138.732-2.832 1.639s-.993 2.029-.843 3.161l8.401 63.228c.306 2.302 2.433 3.99 4.796 3.675 1.135-.151 2.141-.733 2.835-1.64.694-.906.993-2.029.843-3.161l-8.401-63.228c-.15-1.132-.732-2.138-1.639-2.833-.752-.576-1.653-.88-2.586-.88z" fill="#690589"/><path d="m72.192 169.4-11.377-37.924c-.526-1.757-2.141-2.87-3.885-2.871v-.02h-37.495v.02c-1.745 0-3.358 1.115-3.885 2.872l-11.378 37.924c-.644 2.146.573 4.407 2.719 5.051.389.116.781.172 1.168.172 1.744 0 3.356-1.135 3.883-2.892l7.493-24.976v19.871h37.495v-19.87l7.492 24.974c.527 1.757 2.138 2.892 3.883 2.892.386 0 .779-.055 1.168-.172 2.146-.644 3.363-2.905 2.719-5.051z" fill="#ff9f70"/><path d="m240.963 235.455c-2.24 0-4.056-1.816-4.056-4.056v-109.849c0-2.24 1.816-4.056 4.056-4.056s4.056 1.816 4.056 4.056v109.849c.001 2.24-1.816 4.056-4.056 4.056z" fill="#f4efed"/><path d="m240.964 237.455c-3.34 0-6.057-2.717-6.057-6.056v-109.849c0-3.339 2.717-6.056 6.057-6.056 3.339 0 6.056 2.717 6.056 6.056v109.849c0 3.339-2.717 6.056-6.056 6.056zm0-117.961c-1.134 0-2.057.922-2.057 2.056v109.849c0 1.134.923 2.056 2.057 2.056s2.056-.922 2.056-2.056v-109.849c0-1.133-.922-2.056-2.056-2.056z" fill="#690589"/><path d="m227.852 226.685-6.097-75.023v-20.77h-44.208v20.769l-6.098 75.024c-.364 4.466 2.963 8.38 7.428 8.743.224.018.446.027.667.027 4.182 0 7.732-3.214 8.077-7.456l5.463-67.213c.278-3.421 3.135-6.056 6.568-6.056 3.432 0 6.29 2.635 6.568 6.056l5.463 67.213c.345 4.242 3.894 7.456 8.077 7.456.22 0 .443-.009.666-.027 4.463-.363 7.79-4.278 7.426-8.743z" fill="#526faa"/><path d="m245.916 111.411h-10.99l-7.196-31.809c-.643-2.84-3.179-4.759-5.975-4.739v-.004h-44.208v.005c-2.781-.003-5.295 1.91-5.935 4.739l-10.478 46.315c-.741 3.277 1.315 6.535 4.592 7.276.452.103.903.152 1.349.152 2.78 0 5.289-1.918 5.929-4.743l4.544-20.084v22.374h44.208v-22.551l2.375 10.497c.628 2.773 3.092 4.741 5.935 4.741h15.851c3.36 0 6.084-2.724 6.084-6.084-.001-3.361-2.725-6.085-6.085-6.085z" fill="#fcc24c"/><path d="m227.852 226.685-6.097-75.023v-20.77h-6.084v20.77l6.097 75.023c.295 3.623-1.84 6.883-5.041 8.178.941.381 1.965.592 3.03.592.22 0 .443-.009.666-.027 4.466-.363 7.793-4.278 7.429-8.743z" fill="#34518c"/><path d="m221.645 79.602 6.302 27.858c.523 2.311 2.576 3.951 4.945 3.951h2.033l-7.196-31.809c-.643-2.84-3.179-4.759-5.975-4.739v-.004h-6.084v.004c2.796-.021 5.332 1.899 5.975 4.739z" fill="#dea42e"/><path d="m245.916 111.411h-6.084c3.36 0 6.084 2.724 6.084 6.084s-2.724 6.084-6.084 6.084h6.084c3.36 0 6.084-2.724 6.084-6.084s-2.724-6.084-6.084-6.084z" fill="#dea42e"/><path d="m142.499 226.685-7.091-87.257c-.005-.058-.017-.113-.023-.171v-15.269h-47.373v15.271c-.006.057-.018.112-.022.169l-7.092 87.257c-.364 4.466 2.963 8.38 7.428 8.743.224.018.446.027.666.027 4.182 0 7.732-3.214 8.077-7.456l5.709-70.241c.378-4.646 4.259-8.225 8.92-8.225 4.662 0 8.543 3.579 8.921 8.225l5.709 70.241c.345 4.242 3.894 7.456 8.077 7.456.22 0 .443-.009.666-.027 4.465-.363 7.791-4.278 7.428-8.743z" fill="#526faa"/><path d="m152.635 128.677-11.229-59.77c-.552-2.939-3.134-4.98-6.022-4.957v-.006h-47.372v.004c-2.867 0-5.43 2.032-5.979 4.957l-11.229 59.77c-.621 3.303 1.554 6.483 4.856 7.103.379.071.757.105 1.13.105 2.869 0 5.424-2.039 5.972-4.962l5.249-27.941v21.006h47.372v-21.232l5.292 28.168c.549 2.923 3.102 4.962 5.972 4.962.372 0 .751-.034 1.13-.105 3.304-.619 5.479-3.799 4.858-7.102z" fill="#f4efed"/><path d="m38.182 128.585c-7.254 0-13.134-5.88-13.134-13.134v-8.083c0-7.254 5.88-13.134 13.134-13.134 7.254 0 13.134 5.881 13.134 13.134v8.083c.001 7.253-5.88 13.134-13.134 13.134z" fill="#ff9f70"/><path d="m38.183 130.584c-8.346 0-15.135-6.789-15.135-15.134v-8.083c0-8.345 6.789-15.134 15.135-15.134 8.345 0 15.134 6.789 15.134 15.134v8.083c-.001 8.345-6.79 15.134-15.134 15.134zm0-34.351c-6.14 0-11.135 4.995-11.135 11.134v8.083c0 6.14 4.995 11.134 11.135 11.134s11.134-4.995 11.134-11.134v-8.083c-.001-6.139-4.995-11.134-11.134-11.134z" fill="#690589"/><path d="m111.698 63.945c-9.165 0-16.594-7.429-16.594-16.594v-10.212c0-9.165 7.429-16.594 16.594-16.594 9.165 0 16.594 7.429 16.594 16.594v10.212c0 9.164-7.429 16.594-16.594 16.594z" fill="#ff9f70"/><path d="m111.698 65.945c-10.253 0-18.594-8.341-18.594-18.594v-10.212c0-10.252 8.341-18.594 18.594-18.594s18.595 8.341 18.595 18.594v10.212c0 10.253-8.342 18.594-18.595 18.594zm0-43.4c-8.047 0-14.594 6.547-14.594 14.594v10.212c0 8.047 6.547 14.594 14.594 14.594 8.048 0 14.595-6.547 14.595-14.594v-10.212c0-8.047-6.547-14.594-14.595-14.594z" fill="#690589"/><path d="m56.93 166.627h-37.495c0 9.949 8.065 18.014 18.014 18.014h1.468c9.948 0 18.013-8.065 18.013-18.014z" fill="#f4efed"/><path d="m38.916 186.641h-1.468c-11.035 0-20.014-8.979-20.014-20.014 0-1.104.896-2 2-2h37.496c1.104 0 2 .896 2 2 .001 11.035-8.978 20.014-20.014 20.014zm-17.357-18.015c.987 7.89 7.736 14.014 15.89 14.014h1.468c8.153 0 14.903-6.124 15.891-14.014z" fill="#690589"/><path d="m11.27 169.401 11.377-37.924c.527-1.757 2.14-2.872 3.885-2.872v-.02h-7.098v.02c-1.745 0-3.358 1.115-3.885 2.872l-11.377 37.924c-.644 2.146.573 4.407 2.719 5.051.389.116.781.172 1.168.172 1.466 0 2.83-.808 3.543-2.107-.504-.92-.657-2.032-.332-3.116z" fill="#ffbd8e"/><g fill="#690589"><path d="m8.059 176.624c-.587 0-1.173-.086-1.74-.256-3.2-.961-5.021-4.344-4.062-7.542l11.378-37.924c.738-2.462 2.91-4.151 5.466-4.289.109-.019.221-.028.335-.028h37.496c.116 0 .23.01.342.029 2.554.141 4.723 1.83 5.458 4.289l11.378 37.923c.959 3.199-.862 6.582-4.061 7.541-.564.17-1.151.256-1.742.256-2.652 0-5.037-1.775-5.799-4.318l-3.576-11.921v6.243c0 1.104-.896 2-2 2h-37.497c-1.104 0-2-.896-2-2v-6.244l-3.577 11.924c-.762 2.541-3.147 4.317-5.799 4.317zm11.653-46.04c-.09.013-.183.02-.276.02-.919 0-1.711.582-1.97 1.446l-11.378 37.925c-.326 1.086.293 2.235 1.379 2.561 1.065.316 2.242-.324 2.559-1.378l7.493-24.977c.285-.95 1.23-1.544 2.206-1.404.982.145 1.71.987 1.71 1.979v17.871h33.496v-17.87c0-.992.728-1.834 1.71-1.979.98-.141 1.921.454 2.206 1.404l7.492 24.974c.316 1.056 1.502 1.696 2.558 1.379 1.087-.326 1.706-1.475 1.38-2.561l-11.379-37.924c-.258-.865-1.05-1.445-1.97-1.446-.095 0-.188-.007-.278-.02z"/><path d="m27.547 160.719c-1.104 0-2-.896-2-2v-12.168c0-1.104.896-2 2-2s2 .896 2 2v12.168c0 1.105-.896 2-2 2z"/><path d="m134.404 237.455c-5.224 0-9.647-4.082-10.07-9.293l-5.708-70.241c-.292-3.582-3.334-6.387-6.928-6.387s-6.636 2.805-6.927 6.386l-5.71 70.241c-.445 5.484-5.302 9.708-10.896 9.26-5.56-.453-9.713-5.341-9.261-10.898l7.093-87.257c.002-.028.009-.086.016-.141v-15.136c0-1.104.896-2 2-2h47.372c1.104 0 2 .896 2 2v15.133c.006.042.012.089.016.137l7.091 87.264c.22 2.692-.623 5.308-2.372 7.367-1.749 2.058-4.194 3.312-6.887 3.531-.279.023-.556.034-.829.034zm-22.706-89.921c5.661 0 10.455 4.42 10.914 10.062l5.708 70.241c.27 3.317 3.211 5.866 6.589 5.597 1.626-.132 3.104-.89 4.162-2.134 1.057-1.244 1.566-2.825 1.434-4.452l-7.109-87.388c-.008-.067-.011-.135-.011-.202v-13.269h-43.372v13.271c0 .068-.004.136-.011.204-.003.036-.019.147-.024.183l-7.087 87.201c-.273 3.359 2.237 6.314 5.597 6.587 3.349.269 6.318-2.279 6.588-5.597l5.71-70.241c.456-5.643 5.25-10.063 10.912-10.063z"/><path d="m146.648 137.886c-3.883 0-7.222-2.773-7.938-6.593l-1.336-7.109c-.098 1.013-.951 1.805-1.99 1.805h-47.371c-.993 0-1.817-.724-1.974-1.673l-1.311 6.977c-.716 3.82-4.055 6.593-7.938 6.593-.502 0-1.006-.047-1.5-.14-2.122-.398-3.962-1.6-5.181-3.382-1.219-1.783-1.67-3.934-1.271-6.056l11.229-59.77c.707-3.767 3.971-6.515 7.792-6.586.051-.004.102-.006.153-.006h47.372c.055 0 .108.002.161.006 3.839.051 7.114 2.795 7.826 6.587l11.229 59.77c.398 2.122-.053 4.273-1.271 6.056-1.219 1.782-3.06 2.983-5.182 3.382-.493.092-.997.139-1.499.139zm-11.261-37.13c.952 0 1.784.678 1.964 1.631l5.292 28.168c.361 1.93 2.047 3.331 4.006 3.331.254 0 .51-.024.76-.071 1.073-.202 2.003-.809 2.619-1.709.615-.9.844-1.987.642-3.059l-11.229-59.77c-.362-1.932-2.044-3.326-4.005-3.326-.019 0-.033 0-.051 0-.052 0-.103-.002-.153-.006h-47.087c-.044.003-.088.004-.132.004h-.001c-1.964 0-3.651 1.398-4.013 3.325l-11.229 59.771c-.202 1.073.026 2.159.642 3.06s1.546 1.508 2.618 1.709c.251.047.507.071.761.071 1.96 0 3.645-1.4 4.006-3.331l5.25-27.941c.191-1.016 1.141-1.718 2.151-1.622 1.028.096 1.814.958 1.814 1.991v19.006h43.372v-19.232c0-1.033.786-1.896 1.814-1.991.064-.006.126-.009.189-.009z"/><path d="m219.758 237.455c-5.224 0-9.647-4.082-10.07-9.293l-5.462-67.213c-.192-2.365-2.202-4.218-4.575-4.218-2.372 0-4.382 1.853-4.574 4.218l-5.463 67.213c-.445 5.485-5.338 9.713-10.897 9.26s-9.712-5.341-9.26-10.898l6.091-74.943v-20.688c0-1.104.896-2 2-2h44.208c1.104 0 2 .896 2 2v20.689l6.091 74.942c.22 2.692-.623 5.308-2.372 7.367-1.749 2.058-4.195 3.312-6.888 3.531-.279.022-.557.033-.829.033zm-20.108-84.725c4.44 0 8.201 3.467 8.562 7.894l5.462 67.213c.27 3.317 3.207 5.866 6.589 5.597 1.627-.132 3.105-.89 4.162-2.134 1.058-1.244 1.566-2.826 1.435-4.453l-6.098-75.023c-.005-.054-.007-.108-.007-.162v-18.77h-40.208v18.769c0 .054-.002.108-.007.162l-6.098 75.024c-.273 3.359 2.237 6.314 5.597 6.587 3.363.267 6.318-2.28 6.588-5.597l5.463-67.213c.36-4.426 4.12-7.894 8.56-7.894z"/><path d="m167.074 135.345c-.6 0-1.202-.068-1.791-.201-2.104-.476-3.899-1.744-5.052-3.57s-1.524-3.992-1.049-6.098l10.478-46.314c.828-3.659 3.992-6.227 7.728-6.296.053-.004.105-.006.159-.006h44.208c.041 0 .082.001.122.003 3.713.037 6.981 2.666 7.803 6.298l6.844 30.25h9.393c4.458 0 8.084 3.626 8.084 8.084s-3.626 8.084-8.084 8.084h-15.852c-2.533 0-4.818-1.15-6.31-3.014v8.327c0 1.104-.896 2-2 2h-44.208c-1.104 0-2-.896-2-2v-4.471l-.593 2.622c-.841 3.711-4.081 6.302-7.88 6.302zm10.468-58.481c-1.89 0-3.563 1.337-3.979 3.18l-10.478 46.315c-.497 2.196.886 4.388 3.082 4.884 2.181.49 4.401-.942 4.886-3.083l4.543-20.084c.226-.994 1.165-1.657 2.173-1.546 1.013.113 1.778.969 1.778 1.988v20.374h40.208v-20.551c0-1.019.766-1.875 1.778-1.988.996-.11 1.947.552 2.173 1.546l2.375 10.497c.424 1.874 2.062 3.183 3.983 3.183h15.852c2.252 0 4.084-1.833 4.084-4.084s-1.832-4.084-4.084-4.084h-10.99c-.935 0-1.744-.647-1.951-1.559l-7.196-31.809c-.42-1.857-2.1-3.186-4.009-3.181-.044 0-.088 0-.132-.003h-43.952c-.047.003-.11-.006-.141.005-.001 0-.002 0-.003 0z"/></g><path d="m199.651 81.957c-8.552 0-15.486-6.933-15.486-15.486v-9.53c0-8.552 6.933-15.486 15.486-15.486 8.553 0 15.486 6.933 15.486 15.486v9.53c-.001 8.553-6.934 15.486-15.486 15.486z" fill="#ff9f70"/><path d="m199.65 83.957c-9.642 0-17.485-7.844-17.485-17.485v-9.53c0-9.642 7.844-17.485 17.485-17.485s17.486 7.844 17.486 17.485v9.53c.001 9.641-7.844 17.485-17.486 17.485zm0-40.5c-7.436 0-13.485 6.049-13.485 13.485v9.53c0 7.436 6.05 13.485 13.485 13.485 7.437 0 13.486-6.049 13.486-13.485v-9.53c.001-7.436-6.049-13.485-13.486-13.485z" fill="#690589"/><path d="m135.383 104.756c-.945 0-1.786-.673-1.965-1.635l-4.057-21.85c-.201-1.086.516-2.13 1.602-2.332 1.085-.203 2.13.516 2.332 1.601l4.057 21.85c.201 1.086-.516 2.13-1.602 2.332-.123.023-.246.034-.367.034z" fill="#690589"/><path d="m88.015 104.756c-.121 0-.243-.011-.367-.034-1.086-.202-1.803-1.245-1.602-2.332l4.056-21.85c.201-1.086 1.237-1.805 2.332-1.602 1.086.202 1.803 1.245 1.602 2.332l-4.056 21.85c-.179.963-1.02 1.636-1.965 1.636z" fill="#690589"/></svg>