<svg id="Capa_1" enable-background="new 0 0 511.981 511.981" height="512" viewBox="0 0 511.981 511.981" width="512" xmlns="http://www.w3.org/2000/svg"><g id="XMLID_2207_"><path id="XMLID_1642_" d="m363.256 191.358 90.515-90.515c10.179-10.179 26.681-10.179 36.86 0 10.179 10.179 10.179 26.681 0 36.86l-99.895 99.895 67.515-7.901c12.547-1.468 24.328 6.313 27.902 18.43 3.531 11.971-1.962 24.761-13.075 30.442l-30.554 15.621c-36.85 18.84-78.286 26.85-119.504 23.1l-184.691 184.692-127.626-.01.003-123.65 186.672-186.672c-.592-34.925 13.02-68.595 37.72-93.294l80.689-80.689c10.179-10.179 26.681-10.179 36.86 0 10.179 10.179 10.179 26.681 0 36.86l-63.111 63.111m36.86 36.86 100.085-100.085c10.179-10.179 10.179-26.681 0-36.86-10.179-10.179-26.681-10.179-36.86 0l-100.085 100.085m73.72 73.72 130.403-130.403c10.179-10.179 10.179-26.681 0-36.86-10.179-10.179-26.681-10.179-36.86 0l-130.403 130.403" fill="#f2bb88"/><path id="XMLID_1600_" d="m222.643 181.185h44v177.684h-44z" fill="#98a1b3" transform="matrix(.707 -.707 .707 .707 -119.283 252.078)"/><g id="XMLID_1768_"><circle id="XMLID_1770_" cx="183.63" cy="331.04" fill="#f5737f" r="20"/><g id="XMLID_1013_"><path id="XMLID_1042_" d="m483.67 85.086 17.06-17.06c14.061-14.062 14.061-36.94 0-51.001-6.812-6.813-15.867-10.563-25.501-10.563-9.633 0-18.689 3.751-25.501 10.563l-7.553 7.553c-1.712-5.133-4.607-9.953-8.688-14.032-14.061-14.061-36.938-14.059-51.001 0l-14.064 14.064c-1.748-5.222-4.696-10.006-8.703-14.014-6.812-6.812-15.868-10.563-25.501-10.563-9.634 0-18.69 3.751-25.502 10.563l-80.689 80.688c-25.45 25.451-40.126 60.311-40.652 96.227l-183.74 183.74c-3.905 3.905-3.905 10.237 0 14.143 3.906 3.904 10.236 3.904 14.143 0l148.488-148.489 111.499 111.499-146.507 146.506c-3.905 3.905-3.905 10.237 0 14.143 1.953 1.952 4.512 2.929 7.071 2.929s5.118-.977 7.071-2.929c0 0 153.584-153.584 153.587-153.587l27.835-27.836c41.589 2.925 83.067-5.522 120.252-24.534l30.554-15.621c15.386-7.866 23.004-25.604 18.115-42.176-4.966-16.835-21.229-27.574-38.655-25.534l-38.934 4.557 79.547-79.547c14.061-14.062 14.061-36.94 0-51.002-4.078-4.08-8.898-6.975-14.031-8.687zm-303.262 137.676 16.97-16.97 111.499 111.499-16.97 16.97zm303.152-92.13-99.895 99.896c-3.011 3.011-3.784 7.598-1.929 11.43s5.933 6.062 10.162 5.574l67.515-7.901c7.715-.908 14.943 3.857 17.147 11.327 2.169 7.352-1.211 15.22-8.035 18.71l-30.555 15.621c-34.154 17.461-72.278 25.155-110.475 22.337l-120.11-120.111c.521-30.644 13.064-60.369 34.783-82.088l80.689-80.688c6.265-6.264 16.455-6.263 22.718 0 6.257 6.257 6.264 16.433.02 22.697l-63.021 63.021-.11.109-.064.064c-3.905 3.905-3.905 10.237 0 14.143 3.906 3.904 10.236 3.904 14.143 0l100.085-100.086c6.265-6.264 16.455-6.263 22.718 0 6.264 6.264 6.264 16.454 0 22.718l-100.085 100.085c-3.905 3.905-3.905 10.237 0 14.143 3.906 3.904 10.236 3.904 14.143 0l130.466-130.466c3.034-3.034 7.068-4.705 11.358-4.705 4.291 0 8.324 1.671 11.358 4.705 6.264 6.263 6.264 16.454 0 22.717l-130.401 130.403c-3.905 3.905-3.905 10.237 0 14.143 3.906 3.904 10.236 3.904 14.143 0l90.515-90.515c6.262-6.264 16.452-6.266 22.718 0 6.262 6.262 6.262 16.454-.001 22.717z"/><path id="XMLID_1070_" d="m153.685 427.195c-3.442-4.316-9.735-5.026-14.054-1.581-11.613 9.265-27.345 10.244-39.793 3.361l41.366-41.366 10.88 10.88c1.953 1.952 4.512 2.929 7.071 2.929s5.118-.977 7.071-2.929c3.905-3.905 3.905-10.237 0-14.143l-10.88-10.88 15.358-15.358c4.076 1.941 8.5 2.918 12.925 2.918 7.683 0 15.365-2.924 21.214-8.772 11.697-11.697 11.697-30.73-.001-42.428-11.696-11.696-30.729-11.694-42.426 0-9.218 9.218-11.166 22.991-5.855 34.14l-15.357 15.358-10.88-10.88c-3.905-3.903-10.235-3.904-14.143 0-3.905 3.905-3.905 10.237 0 14.143l10.88 10.88-41.366 41.366c-6.883-12.449-5.904-28.181 3.361-39.794 3.444-4.317 2.736-10.609-1.581-14.054-4.316-3.445-10.609-2.735-14.054 1.581-17.776 22.282-15.967 54.3 4.208 74.476 10.888 10.887 25.221 16.425 39.613 16.425 12.279-.001 24.604-4.033 34.861-12.217 4.318-3.446 5.026-9.738 1.582-14.055zm22.873-103.226c1.95-1.949 4.511-2.924 7.072-2.924s5.121.975 7.07 2.924c1.889 1.889 2.93 4.4 2.93 7.071s-1.041 5.183-2.93 7.071-4.399 2.929-7.07 2.929c-2.672 0-5.183-1.04-7.071-2.929s-2.929-4.4-2.929-7.071 1.04-5.183 2.928-7.071z"/></g></g></g></svg>