<svg id="Layer_1" enable-background="new 0 0 256 256" height="512" viewBox="0 0 256 256" width="512" xmlns="http://www.w3.org/2000/svg"><g><g><g><g><g><g><path d="m74.849 197.253c-2.209 0-4-1.791-4-4v-80.902c0-2.206-1.794-4-4-4h-28.939c-7.168 0-13-5.832-13-13v-27.259c0-7.168 5.832-13 13-13h57.507c2.209 0 4 1.791 4 4s-1.791 4-4 4h-57.507c-2.757 0-5 2.243-5 5v27.259c0 2.757 2.243 5 5 5h28.939c6.617 0 12 5.383 12 12v80.902c0 2.209-1.791 4-4 4z" fill="#a4c9ff"/></g></g></g></g></g><g><g><g><g><g><path d="m74.849 199.253c-3.309 0-6-2.691-6-6v-80.902c0-1.103-.897-2-2-2h-28.939c-8.271 0-15-6.729-15-15v-27.259c0-8.271 6.729-15 15-15h57.507c3.309 0 6 2.691 6 6s-2.691 6-6 6h-57.507c-1.654 0-3 1.346-3 3v27.259c0 1.654 1.346 3 3 3h28.939c7.72 0 14 6.28 14 14v80.902c0 3.309-2.692 6-6 6zm-36.939-142.161c-6.065 0-11 4.935-11 11v27.259c0 6.065 4.935 11 11 11h28.939c3.309 0 6 2.691 6 6v80.902c0 1.103.897 2 2 2s2-.897 2-2v-80.902c0-5.514-4.486-10-10-10h-28.939c-3.86 0-7-3.141-7-7v-27.259c0-3.859 3.14-7 7-7h57.507c1.103 0 2-.897 2-2s-.897-2-2-2z" fill="#3762cc"/></g></g></g></g></g><g><g><g><g><path d="m234.443 157.587-8.707-9.987c-2.113-2.424-5.001-4.047-8.169-4.596-5.443-.943-4.358-.709-14.093-.709-12.09.713-24.155 1.786-36.18 3.203-11.157.988-20.797 6.83-26.931 15.328h-117.946c-1.105 0-2 .895-2 2v58.539c0 1.105.895 2 2 2h116.52c2.043 3.287 4.593 6.265 7.591 8.8 2.959 2.837 6.591 4.875 10.554 5.923l36.814 9.736c2.321.614 4.781-.269 6.182-2.218l6.552-9.116h11.29c1.431 0 2.811-.53 3.874-1.487l12.256-11.031c.976-.879 1.534-2.13 1.534-3.443v-59.898c-.001-1.119-.406-2.2-1.141-3.044z" fill="#f9cfcf"/></g></g></g></g><g><g><g><g><path d="m195.353 250.014c-.656 0-1.318-.084-1.969-.256l-36.813-9.735c-4.26-1.128-8.194-3.329-11.382-6.37-2.822-2.395-5.289-5.179-7.345-8.287h-115.427c-2.206 0-4-1.794-4-4v-58.539c0-2.206 1.794-4 4-4h116.939c6.692-8.779 16.752-14.345 27.761-15.32 12.023-1.418 24.235-2.499 36.239-3.207.039-.003.078-.004.118-.004 1.917 0 3.414-.009 4.623-.017 4.969-.031 5.267-.031 9.812.755 3.613.626 6.928 2.491 9.335 5.252l8.707 9.987c1.053 1.209 1.633 2.756 1.633 4.358v59.898c0 1.877-.8 3.673-2.195 4.93l-12.257 11.031c-1.432 1.29-3.283 2-5.212 2h-10.264l-5.953 8.282c-1.481 2.06-3.879 3.241-6.35 3.242zm-172.936-87.188v58.539h116.521c.691 0 1.333.357 1.699.944 1.96 3.153 4.377 5.955 7.183 8.328.032.027.063.055.092.084 2.708 2.595 6.056 4.474 9.682 5.434l36.813 9.735c1.51.398 3.136-.185 4.047-1.452l6.552-9.115c.376-.523.98-.833 1.624-.833h11.29c.938 0 1.839-.346 2.536-.973l12.257-11.031c.554-.499.872-1.212.872-1.957v-59.898c0-.636-.23-1.25-.648-1.729l-8.707-9.987c-1.806-2.071-4.292-3.47-7.003-3.939-4.193-.726-4.194-.726-9.105-.696-1.203.008-2.689.017-4.588.017-11.908.704-24.021 1.777-36.005 3.189-10.251.909-19.541 6.196-25.543 14.513-.376.521-.979.829-1.622.829h-117.947z" fill="#3762cc"/></g></g></g></g><g><g><g><g><path d="m28.909 228.351v-70.195c0-2.209 1.791-4 4-4h83.879c2.209 0 4 1.791 4 4v70.195c0 2.209-1.791 4-4 4h-83.879c-2.209 0-4-1.791-4-4z" fill="#fff"/></g></g></g></g><g><g><g><g><path d="m227.583 114.65h-119.166c-4.418 0-8-3.582-8-8v-90.667c0-4.418 3.582-8 8-8h119.167c4.418 0 8 3.582 8 8v90.667c-.001 4.418-3.582 8-8.001 8z" fill="#6bdddd"/></g></g></g></g><g><g><g><g><path d="m112.417 75.684v-51.701c0-2.209 1.791-4 4-4h103.167c2.209 0 4 1.791 4 4v51.701c0 2.209-1.791 4-4 4h-103.167c-2.209 0-4-1.791-4-4z" fill="#e0ebfc"/></g></g></g></g><g><g><g><g><path d="m178.667 101.167h-21.333c-1.657 0-3-1.343-3-3v-6c0-1.657 1.343-3 3-3h21.333c1.657 0 3 1.343 3 3v6c0 1.657-1.343 3-3 3z" fill="#4671c6"/></g></g></g></g><g><g><g><g><path d="m136.75 101.167h-21.333c-1.657 0-3-1.343-3-3v-6c0-1.657 1.343-3 3-3h21.333c1.657 0 3 1.343 3 3v6c0 1.657-1.343 3-3 3z" fill="#4671c6"/></g></g></g></g><g><g><g><g><path d="m220.584 101.167h-21.334c-1.657 0-3-1.343-3-3v-6c0-1.657 1.343-3 3-3h21.333c1.657 0 3 1.343 3 3v6c.001 1.657-1.342 3-2.999 3z" fill="#4671c6"/></g></g></g></g><g><g><g><g><path d="m166.835 71.087c1.679 1.265 3.992 1.262 5.668-.006l20.432-15.458c5.759-4.339 7.783-12.065 4.89-18.67-3.141-7.171-11.12-10.891-18.632-8.688-4.292 1.259-7.695 4.246-9.573 8.05-1.878-3.804-5.281-6.791-9.572-8.05-7.57-2.221-15.615 1.575-18.704 8.856-2.814 6.632-.564 14.339 5.191 18.674z" fill="#f9a7a7"/></g></g></g></g><g><g><g><g><path d="m168 64.684c-.003 0-.006 0-.009 0-.818-.004-1.552-.505-1.852-1.267l-7.998-20.287-1.873 7.206c-.229.882-1.025 1.497-1.936 1.497h-23.582c-1.104 0-2-.896-2-2s.896-2 2-2h22.037l3.028-11.652c.218-.838.95-1.44 1.814-1.493.874-.061 1.665.458 1.982 1.263l8.412 21.339 6.206-15.354c.303-.749 1.026-1.242 1.833-1.251h.021c.799 0 1.522.476 1.838 1.211l3.631 8.455 1.029-2.709c.295-.776 1.039-1.29 1.87-1.29h22.966c1.104 0 2 .896 2 2s-.896 2-2 2h-21.586l-2.294 6.043c-.289.762-1.012 1.272-1.827 1.29-.81.004-1.559-.462-1.881-1.211l-3.689-8.591-6.285 15.551c-.306.755-1.04 1.25-1.855 1.25z" fill="#3762cc"/></g></g></g></g><g><g><g><g><path d="m100.417 68.35h-8c-1.105 0-2-.895-2-2v-14.517c0-1.105.895-2 2-2h8z" fill="#e0ebfc"/></g></g></g></g><g><g><g><g><path d="m28.909 228.351v-70.195c0-2.209 1.791-4 4-4h83.879c2.209 0 4 1.791 4 4v70.195c0 2.209-1.791 4-4 4h-83.879c-2.209 0-4-1.791-4-4z" fill="#4671c6"/></g></g></g></g><g><g><g><g><path d="m116.788 234.351h-83.878c-3.309 0-6-2.691-6-6v-70.194c0-3.309 2.691-6 6-6h83.878c3.309 0 6 2.691 6 6v70.194c0 3.308-2.691 6-6 6zm-83.878-78.195c-1.103 0-2 .897-2 2v70.194c0 1.103.897 2 2 2h83.878c1.103 0 2-.897 2-2v-70.194c0-1.103-.897-2-2-2z" fill="#3762cc"/></g></g></g></g><g><g><g><g><path d="m227.583 116.649h-119.166c-5.514 0-10-4.486-10-10v-90.666c0-5.514 4.486-10 10-10h119.167c5.514 0 10 4.486 10 10v90.666c-.001 5.514-4.486 10-10.001 10zm-119.166-106.666c-3.309 0-6 2.691-6 6v90.666c0 3.309 2.691 6 6 6h119.167c3.309 0 6-2.691 6-6v-90.666c0-3.309-2.691-6-6-6z" fill="#3762cc"/></g></g></g></g><g><g><g><g><path d="m219.583 81.684h-103.166c-3.309 0-6-2.691-6-6v-51.702c0-3.309 2.691-6 6-6h103.167c3.309 0 6 2.691 6 6v51.701c-.001 3.309-2.692 6.001-6.001 6.001zm-103.166-59.702c-1.103 0-2 .897-2 2v51.701c0 1.103.897 2 2 2h103.167c1.103 0 2-.897 2-2v-51.701c0-1.103-.897-2-2-2z" fill="#3762cc"/></g></g></g></g><g><g><g><g><path d="m178.667 103.167h-21.333c-2.757 0-5-2.243-5-5v-6c0-2.757 2.243-5 5-5h21.333c2.757 0 5 2.243 5 5v6c0 2.757-2.244 5-5 5zm-21.334-12c-.551 0-1 .448-1 1v6c0 .552.449 1 1 1h21.333c.551 0 1-.448 1-1v-6c0-.552-.449-1-1-1z" fill="#3762cc"/></g></g></g></g><g><g><g><g><path d="m136.75 103.167h-21.333c-2.757 0-5-2.243-5-5v-6c0-2.757 2.243-5 5-5h21.333c2.757 0 5 2.243 5 5v6c0 2.757-2.243 5-5 5zm-21.333-12c-.551 0-1 .448-1 1v6c0 .552.449 1 1 1h21.333c.551 0 1-.448 1-1v-6c0-.552-.449-1-1-1z" fill="#3762cc"/></g></g></g></g><g><g><g><g><path d="m220.583 103.167h-21.333c-2.757 0-5-2.243-5-5v-6c0-2.757 2.243-5 5-5h21.333c2.757 0 5 2.243 5 5v6c0 2.757-2.243 5-5 5zm-21.333-12c-.551 0-1 .448-1 1v6c0 .552.449 1 1 1h21.333c.551 0 1-.448 1-1v-6c0-.552-.449-1-1-1z" fill="#3762cc"/></g></g></g></g><g><g><g><g><path d="m100.417 70.351h-8c-2.206 0-4-1.794-4-4v-14.518c0-2.206 1.794-4 4-4h8c1.104 0 2 .896 2 2v18.518c0 1.104-.896 2-2 2zm-8-18.518v14.518h6v-14.518z" fill="#3762cc"/></g></g></g></g></g></svg>