<?xml version="1.0" encoding="iso-8859-1"?>
<!-- Generator: Adobe Illustrator 21.0.0, SVG Export Plug-In . SVG Version: 6.00 Build 0)  -->
<svg xmlns="http://www.w3.org/2000/svg" xmlns:xlink="http://www.w3.org/1999/xlink" version="1.1" id="Capa_1" x="0px" y="0px" viewBox="0 0 514.966 514.966" style="enable-background:new 0 0 514.966 514.966;" xml:space="preserve" width="512" height="512">
<g>
	<path style="fill:#FFEE58;" d="M191.51,139.071l-94.666-25.274c-8.605-2.297-13.718-11.136-11.421-19.741l0,0   c2.297-8.605,11.136-13.718,19.741-11.421l94.666,25.274c8.605,2.297,13.718,11.136,11.421,19.741v0   C208.953,136.255,200.115,141.368,191.51,139.071z"/>
	<path style="fill:#FFEE58;" d="M183.419,201.071l-97.279-11.72c-8.842-1.065-15.147-9.097-14.082-17.94l0,0   c1.065-8.842,9.097-15.147,17.94-14.082l97.279,11.72c8.842,1.065,15.147,9.097,14.082,17.94v0   C200.294,195.832,192.262,202.136,183.419,201.071z"/>
	<path style="fill:#FFEE58;" d="M186.567,261.51l-97.811,5.789c-8.891,0.526-16.525-6.255-17.051-15.146v0   c-0.526-8.891,6.255-16.525,15.146-17.051l97.811-5.789c8.891-0.526,16.525,6.255,17.051,15.146v0   C202.239,253.349,195.458,260.983,186.567,261.51z"/>
	<path style="fill:#FFCCBC;" d="M273.927,7.5c-61.519-0.18-115.425,32.476-145.181,81.431l71.084,18.979   c8.605,2.297,13.719,11.135,11.421,19.74l0,0c-2.297,8.605-11.136,13.718-19.741,11.421l-77.006-20.56   c-4.718,12.886-7.913,26.506-9.368,40.641l82.142,9.896c8.843,1.065,15.147,9.097,14.082,17.94s-9.097,15.147-17.94,14.082   l-79.182-9.54v3.653c0,13.119,0.803,26.051,2.363,38.748l78.061-4.62c8.891-0.526,16.525,6.255,17.051,15.146v0   c0.526,8.891-6.255,16.525-15.146,17.051l-74.347,4.4C141.23,392.176,246.235,489.427,376.51,506.936   c35.382,4.755,66.779-22.993,66.779-58.693V179.001C443.289,85.116,367.811,7.775,273.927,7.5z"/>
	<path style="fill:#FF8A65;" d="M327.901,16.535c45.524,30.901,75.388,83.41,75.388,142.466v269.242   c0,35.7-31.397,63.449-66.779,58.693c-27.205-3.656-53.307-10.791-77.846-20.94c35.404,20.981,75.276,35.219,117.846,40.94   c35.382,4.755,66.779-22.993,66.779-58.693V179.001C443.289,104.008,395.131,39.571,327.901,16.535z"/>
	<path style="fill:#FFAB91;" d="M278.753,58.145c-39.386-1.741-74.863,16.151-97.676,44.758l18.752,5.007   c8.605,2.297,13.719,11.135,11.421,19.74l0,0c-2.297,8.605-11.136,13.718-19.741,11.421l-27.489-7.339   c-4.375,10.497-7.314,21.743-8.568,33.483l31.824,3.834c8.843,1.065,15.147,9.097,14.082,17.94s-9.097,15.147-17.94,14.082   l-28.617-3.448c0.18,11.192,1.047,22.315,2.584,33.304l27.276-1.614c8.891-0.526,16.525,6.255,17.051,15.146v0   c0.526,8.891-6.255,16.525-15.146,17.051l-22.737,1.346c11.738,44.216,34.643,85.08,67.337,118.094   c21.185,21.393,45.375,38.715,71.621,51.573c14.922,7.31,30.739,8.04,44.88,3.829c31.938-9.511,37.773-52.691,9.716-70.672   c-18.208-11.669-30.275-32.082-30.275-55.314c0-27.526,16.941-51.096,40.966-60.852c14.904-6.052,24.685-20.49,24.685-36.576   v-35.57C392.76,113.351,342.093,60.945,278.753,58.145z"/>
	<path style="fill:#FF7043;" d="M305.696,62.462c28.587,21.823,47.064,56.247,47.064,94.906v35.57   c0,16.085-9.781,30.524-24.685,36.576c-24.024,9.755-40.966,33.325-40.966,60.852c0,23.232,12.067,43.645,30.275,55.314   c28.057,17.981,22.221,61.161-9.716,70.672c-10.098,3.007-21.049,3.495-31.92,0.866c8.728,5.648,17.755,10.756,27.04,15.305   c14.922,7.31,30.739,8.04,44.88,3.829c31.938-9.511,37.773-52.691,9.716-70.672c-18.208-11.669-30.275-32.082-30.275-55.314   c0-27.526,16.941-51.096,40.966-60.852c14.904-6.052,24.685-20.49,24.685-36.576v-35.57   C392.76,122.744,355.871,76.574,305.696,62.462z"/>
	<circle style="fill:#78909C;" cx="387.295" cy="310.96" r="29.929"/>
	<path style="fill:#455A64;" d="M389.71,281.127c4.676,5.281,7.514,12.225,7.514,19.833c0,16.53-13.4,29.929-29.929,29.929   c-0.813,0-1.618-0.033-2.415-0.096c5.483,6.193,13.493,10.096,22.415,10.096c16.53,0,29.929-13.4,29.929-29.929   C417.224,295.244,405.11,282.357,389.71,281.127z"/>
	<g>
		<path d="M443.289,242.529c-4.143,0-7.5,3.357-7.5,7.5v198.214c0,31.178-27.443,55.403-58.28,51.26    c-66.392-8.924-129.086-40.137-176.532-87.89c-2.918-2.938-7.667-2.953-10.606-0.034c-2.938,2.92-2.954,7.668-0.034,10.606    c48.794,49.11,113.223,82.512,185.175,92.185c39.695,5.323,75.278-25.723,75.278-66.127V250.029    C450.789,245.887,447.432,242.529,443.289,242.529z"/>
		<path d="M273.949,0c-62.765,0-117.1,31.99-148.605,80.26l-18.247-4.872c-12.589-3.361-25.562,4.146-28.921,16.732    c-3.368,12.617,4.114,25.553,16.732,28.922l9.916,2.647c-2.777,8.85-4.854,17.926-6.205,27.123l-7.724-0.931    c-13.049-1.559-24.73,7.742-26.283,20.631c-1.559,12.935,7.697,24.725,20.631,26.283l11.509,1.387    c0.089,9.588,0.602,19.21,1.531,28.728l-11.875,0.703c-13.005,0.771-22.959,11.978-22.189,24.982    c0.742,12.532,11.176,22.231,23.572,22.23c1,0-0.062,0.046,18.607-1.059c11.046,43.962,31.715,85.843,60.002,121.485    c1.481,1.866,3.67,2.838,5.88,2.838c6.178,0,9.806-7.202,5.87-12.162c-26.379-33.237-45.808-72.162-56.499-113.063l36.573-2.165    c21.837,75.419,74.06,135.632,141.264,168.558c15.782,7.73,33.655,9.245,50.32,4.281c38.111-11.35,45.065-62.744,11.623-84.175    c-16.795-10.764-26.822-29.081-26.822-48.999c0-23.794,14.243-44.952,36.288-53.902c17.837-7.245,29.362-24.329,29.362-43.525    v-35.57c0-43.599-22.045-83.643-58.97-107.117c-3.493-2.222-8.132-1.191-10.353,2.306c-2.223,3.495-1.19,8.131,2.306,10.353    c3.018,1.919,5.923,3.963,8.711,6.124c-38.201,8.045-66.965,42.011-66.965,82.57v32.032c0,20.852,8.12,40.455,22.864,55.2    c1.465,1.464,3.385,2.196,5.304,2.196c6.624,0,10.041-8.065,5.304-12.804c-11.912-11.911-18.472-27.748-18.472-44.593v-32.032    c0-37.229,29.478-67.704,66.319-69.309c18.467,20.309,28.952,46.848,28.952,75.075v35.57c0,13.062-7.854,24.691-20.006,29.627    c-27.729,11.259-45.645,37.872-45.645,67.801c0,25.055,12.608,48.093,33.729,61.628c22.377,14.341,18.347,49.378-7.811,57.17    c-13.241,3.942-26.882,2.776-39.439-3.376c-62.038-30.394-111.139-85.715-132.488-155.997l13.41-0.794    c13.005-0.771,22.959-11.978,22.189-24.982c-0.771-13.004-11.971-22.934-24.982-22.189l-20.271,1.2    c-0.634-5.612-1.09-11.262-1.366-16.91c21.331,2.57,20.81,2.573,22.784,2.573c11.776,0,21.997-8.823,23.44-20.803    c1.557-12.934-7.698-24.724-20.631-26.282l-24.238-2.92c1.061-6.111,2.621-12.118,4.669-17.964    c22.663,6.051,22.972,6.4,27.058,6.4c18.176,0,29.554-19.733,20.456-35.461c-3.16-5.462-8.259-9.367-14.356-10.995l-7.053-1.883    c27.041-27.667,64.397-38.04,99.786-31.261c4.063,0.777,7.997-1.887,8.776-5.956c0.779-4.068-1.888-7.997-5.956-8.776    c-45.461-8.706-90.359,8.533-118.941,41.633L140.664,84.35c30.282-43.634,79.168-69.351,132.749-69.351    c89.556,0,162.376,73.727,162.376,164.002v36.028c0,4.143,3.357,7.5,7.5,7.5s7.5-3.357,7.5-7.5v-36.028    C450.789,80.586,371.459,0.286,273.949,0z M185.105,236.8c4.684-0.291,8.837,3.304,9.121,8.102    c0.281,4.748-3.353,8.841-8.102,9.121c-61.229,3.624,55.606-3.291-97.811,5.789c-4.758,0.307-8.84-3.354-9.121-8.103    c-0.281-4.748,3.353-8.84,8.102-9.12C237.852,233.678,160.977,238.228,185.105,236.8z M148.953,223.912l-35.685,2.112    c-0.858-8.622-1.358-17.337-1.493-26.031l35.711,4.303C147.746,210.843,148.236,217.401,148.953,223.912z M193.913,186.092    c-0.569,4.726-4.853,8.102-9.597,7.533c-109.323-13.172,18.876,2.274-97.278-11.721c-7.572-0.911-10.348-10.599-4.295-15.351    c1.812-1.422,4.069-2.053,6.357-1.778c201.081,24.228,13.576,1.636,97.279,11.721C191.103,177.064,194.482,181.37,193.913,186.092    z M149.027,156.887l-35.509-4.278c1.269-8.497,3.214-16.878,5.814-25.045l34.745,9.276    C151.855,143.371,150.167,150.073,149.027,156.887z M203.137,119.17c3.819,6.606-2.262,14.638-9.692,12.655    c-32.994-8.809-62.272-16.626-94.666-25.274c-2.227-0.595-4.088-2.021-5.242-4.015c-3.838-6.639,2.317-14.627,9.692-12.655    c80.871,21.592,76.282,20.366,94.666,25.274C200.121,115.75,201.983,117.176,203.137,119.17z"/>
		<path d="M424.724,310.96c0-20.639-16.791-37.429-37.43-37.429s-37.429,16.79-37.429,37.429s16.79,37.43,37.429,37.43    S424.724,331.599,424.724,310.96z M387.294,333.39c-12.367,0-22.429-10.062-22.429-22.43c0-12.367,10.062-22.429,22.429-22.429    c12.368,0,22.43,10.062,22.43,22.429C409.724,323.328,399.662,333.39,387.294,333.39z"/>
	</g>
</g>















</svg>
