<svg id="_x33_0" enable-background="new 0 0 64 64" height="512" viewBox="0 0 64 64" width="512" xmlns="http://www.w3.org/2000/svg"><g><g><g><path d="m58 32-3.6 1.03c-.83-1.47-1.94-2.78-3.3-3.84l-.2-.15c-1.26-.98-2.68-1.74-4.17-2.26-1.36-.47-2.79-.73-4.53-.78.27-1.05.82-2.02 1.6-2.8s1.77-1.34 2.85-1.61l.53-.13 1.82 4.54 3-3 3 3 1.82-4.54.53.13c1.08.27 2.07.83 2.85 1.61 1.15 1.15 1.8 2.71 1.8 4.34v4.46z" fill="#e6e9ed"/></g><g><path d="m56.82 21.46-1.82 4.54-3-3 3-2z" fill="#ccd1d9"/></g><g><path d="m52 23-3 3-1.82-4.54 1.82-.46z" fill="#ccd1d9"/></g><g><path d="m17.35 21.59c.99.25 1.9.73 2.64 1.42.07.06.14.12.21.19.78.78 1.33 1.75 1.6 2.8-3.15.03-6.21 1.1-8.7 3.04l-.2.15c-1.36 1.06-2.47 2.37-3.3 3.84l-3.6-1.03h-4v-4.46c0-1.63.65-3.19 1.8-4.34.07-.07.14-.13.21-.19.74-.69 1.65-1.17 2.64-1.42l2.35-.59c0 1.66 1.34 3 3 3 .83 0 1.58-.34 2.12-.88s.88-1.29.88-2.12z" fill="#fcd770"/></g><g><path d="m20.5 18.97-.5 4.03-.01.01c-.74-.69-1.65-1.17-2.64-1.42l-2.35-.59-.65-2.59c.44-.23.84-.52 1.19-.87.9-.91 1.46-2.16 1.46-3.54v-2.27c0-.99-.73-1.83-1.72-1.98l-2.31-.33c-.94-.13-1.74-.64-2.27-1.35l-.01.01-.66.16c-1.78.45-3.03 2.05-3.03 3.88v1.88c0 1.91 1.07 3.57 2.65 4.41l-.65 2.59-2.35.59c-.99.25-1.9.73-2.64 1.42l-.01-.01-.5-4.03c-.33-2.64-.5-5.31-.5-7.97 0-2.48 1.01-4.74 2.64-6.36 1.62-1.63 3.88-2.64 6.36-2.64s4.74 1.01 6.36 2.64c1.63 1.62 2.64 3.88 2.64 6.36 0 2.66-.17 5.33-.5 7.97z" fill="#656d78"/></g><g><path d="m47 12.12v1.88l-.59-.2c-.72-.24-1.32-.7-1.75-1.28-.42-.58-.66-1.3-.66-2.06 0-.87.32-1.7.89-2.34.32.37.71.68 1.16.9l1.66.83c-.45.65-.71 1.43-.71 2.27z" fill="#656d78"/></g><g><path d="m57 12c0-1.1-.9-2-2-2h-3c-1.01 0-1.86-.76-1.98-1.75-.97.24-1.77.83-2.31 1.6l-1.66-.83c-.45-.22-.84-.53-1.16-.9-.56-.66-.89-1.51-.89-2.41 0-2.05 1.66-3.71 3.71-3.71h5.54c1.87 0 3.55.76 4.77 1.98s1.98 2.9 1.98 4.77c0 .83-.13 1.65-.39 2.43-.4 1.2-1.09 2.27-2 3.14l-.71.68c.07-.32.1-.66.1-1z" fill="#656d78"/></g><g><path d="m37 12.12c0-1.83-1.24-3.42-3.02-3.87-.12.99-.97 1.75-1.98 1.75h-3c-1.1 0-2 .9-2 2v2c0 .34.03.68.1 1l-.71-.68c-.91-.87-1.6-1.94-2-3.14-.26-.78-.39-1.6-.39-2.43v-3.75c0-1.66 1.34-3 3-3h7c3.31 0 6 2.69 6 6v.75c0 .83-.13 1.65-.39 2.43-.4 1.2-1.09 2.27-2 3.14l-.71.68c.07-.32.1-.66.1-1z" fill="#b27946"/></g><g><path d="m41.8 26c-3.19.06-6.26 1.16-8.75 3.16l-1.05.84-1.05-.84c-1.28-1.02-2.71-1.82-4.23-2.35-1.28-.45-2.63-.71-4.52-.81.27-1.05.82-2.02 1.6-2.8s1.77-1.34 2.85-1.61l.53-.13 1.82 4.54 3-3 3 3 1.82-4.54.53.13c1.08.27 2.07.83 2.85 1.61s1.33 1.75 1.6 2.8z" fill="#4fc1e9"/></g><g><path d="m36.82 21.46-1.82 4.54-3-3 3-2z" fill="#3bafda"/></g><g><path d="m32 23-3 3-1.82-4.54 1.82-.46z" fill="#3bafda"/></g><g><path d="m32 62-18.35-12.23c-3.53-2.36-5.65-6.32-5.65-10.56 0-.72.06-1.44.18-2.15l1.11-3.43c.1-.2.21-.4.31-.6.83-1.47 1.94-2.78 3.3-3.84l.2-.15c2.49-1.94 5.55-3.01 8.7-3.04h.14.26c1.89.1 3.24.36 4.52.81 1.52.53 2.95 1.33 4.23 2.35l1.05.84 1.05-.84c2.49-2 5.56-3.1 8.75-3.16h.26.14c1.74.05 3.17.31 4.53.78 1.49.52 2.91 1.28 4.17 2.26l.2.15c1.36 1.06 2.47 2.37 3.3 3.84.69 1.25 1.17 2.61 1.42 4.03.12.71.18 1.43.18 2.15 0 2.12-.53 4.17-1.5 5.99-.97 1.81-2.38 3.39-4.15 4.57z" fill="#ff826e"/></g><g><path d="m32 46c0-2.3.84-4.42 2.25-6.04 1.41-1.63 3.39-2.76 5.67-3.09l6.08-.87v.78c0 5.09-4.13 9.22-9.22 9.22z" fill="#b4dd7f"/></g><g><path d="m29.75 37.96c1.41 1.62 2.25 3.74 2.25 6.04h-4.78c-5.09 0-9.22-4.13-9.22-9.22v-.78l6.08.87c2.28.33 4.26 1.46 5.67 3.09z" fill="#b4dd7f"/></g><g><path d="m62 32v.84c0 1.29-.83 2.44-2.05 2.84l-4.13 1.38c-.25-1.42-.73-2.78-1.42-4.03l3.6-1.03z" fill="#f0d0b4"/></g><g><path d="m55 21-3 2-3-2 .65-2.59c.7.38 1.5.59 2.35.59l2.35-.59z" fill="#f0d0b4"/></g><g><path d="m57 12v2c0 .34-.03.68-.1 1-.2.98-.68 1.86-1.36 2.54-.35.35-.75.64-1.19.87l-2.35.59c-.85 0-1.65-.21-2.35-.59-1.58-.84-2.65-2.5-2.65-4.41v-1.88c0-.84.26-1.62.71-2.27.54-.77 1.34-1.36 2.31-1.6.12.99.97 1.75 1.98 1.75h3c1.1 0 2 .9 2 2z" fill="#f0d0b4"/></g><g><path d="m32 19c.85 0 1.65-.21 2.35-.59l.65 2.59-3 2-3-2 .65-2.59z" fill="#f0d0b4"/></g><g><path d="m37 12.12v1.88c0 .34-.03.68-.1 1-.3 1.48-1.25 2.72-2.55 3.41-.7.38-1.5.59-2.35.59l-2.35-.59c-.44-.23-.84-.52-1.19-.87-.68-.68-1.16-1.56-1.36-2.54-.07-.32-.1-.66-.1-1v-2c0-1.1.9-2 2-2h3c1.01 0 1.86-.76 1.98-1.75 1.78.45 3.02 2.04 3.02 3.87z" fill="#f0d0b4"/></g><g><path d="m9.6 33.03c-.1.2-.21.4-.31.6l-1.11 3.43-4.13-1.38c-1.22-.4-2.05-1.55-2.05-2.84v-.84h4z" fill="#f0d0b4"/></g><g><path d="m9.65 18.41c.7.38 1.5.59 2.35.59s1.65-.21 2.35-.59l.65 2.59c0 .83-.34 1.58-.88 2.12s-1.29.88-2.12.88c-1.66 0-3-1.34-3-3z" fill="#f0d0b4"/></g><g><path d="m10.7 8.07c.53.71 1.33 1.22 2.27 1.35l2.31.33c.99.15 1.72.99 1.72 1.98v2.27c0 1.38-.56 2.63-1.46 3.54-.35.35-.75.64-1.19.87-.7.38-1.5.59-2.35.59s-1.65-.21-2.35-.59c-1.58-.84-2.65-2.5-2.65-4.41v-1.88c0-1.83 1.25-3.43 3.03-3.88l.66-.16z" fill="#f0d0b4"/></g></g><path d="m60.909 22.495c-.916-.915-2.062-1.564-3.316-1.877l-1.769-.442-.328-1.31c1.113-.802 1.938-1.975 2.298-3.337l.508-.484c1.025-.977 1.803-2.202 2.25-3.544.298-.89.448-1.813.448-2.749 0-4.274-3.478-7.752-7.752-7.752h-5.54c-2.596 0-4.708 2.112-4.708 4.708 0 .867.237 1.69.659 2.401-.428.704-.659 1.516-.659 2.351 0 1.933 1.224 3.643 3.05 4.274.208 1.699 1.129 3.177 2.453 4.132l-.328 1.31-1.768.442c-1.254.313-2.401.962-3.316 1.877-.425.424-.787.903-1.091 1.416-.304-.513-.666-.992-1.091-1.416-.916-.915-2.062-1.564-3.316-1.877l-1.769-.442-.328-1.31c1.113-.802 1.938-1.975 2.298-3.337l.508-.484c1.025-.977 1.803-2.202 2.25-3.544.298-.89.448-1.813.448-2.749v-.752c0-3.859-3.14-7-7-7h-7c-2.206 0-4 1.794-4 4v3.752c0 .936.15 1.859.446 2.748.447 1.342 1.226 2.567 2.251 3.545l.508.484c.36 1.362 1.185 2.535 2.298 3.337l-.328 1.31-1.768.442c-1.254.313-2.401.962-3.316 1.877-.425.425-.787.903-1.091 1.416-.267-.452-.587-.87-.949-1.254l.445-3.564c.335-2.674.504-5.397.504-8.093 0-5.514-4.486-10-10-10s-10 4.486-10 10c0 2.696.169 5.419.504 8.093l.445 3.559c-1.255 1.33-1.949 3.055-1.949 4.891v5.295c0 1.725 1.099 3.249 2.735 3.794l3.348 1.116c-.051.481-.083.967-.083 1.459 0 4.589 2.279 8.848 6.097 11.393l18.903 12.602 18.903-12.602c3.818-2.545 6.097-6.804 6.097-11.393 0-.492-.032-.978-.083-1.459l3.347-1.116c1.637-.545 2.736-2.069 2.736-3.794v-5.295c0-1.907-.743-3.699-2.091-5.048zm.091 5.048v3.457h-2v-4h-2v4.246l-2.132.609c-.831-1.303-1.891-2.473-3.153-3.454l-.198-.153c-.639-.497-1.318-.937-2.025-1.326l2.508-2.508 3.365 3.365 2.049-5.123c.781.248 1.498.671 2.081 1.253.97.971 1.505 2.261 1.505 3.634zm-10.57-4.388-1.065 1.065-.83-2.074.277-.069zm4.757-1.078.277.069-.83 2.074-1.065-1.065zm-7.479-19.077h5.54c3.171 0 5.752 2.58 5.752 5.752 0 .72-.116 1.432-.343 2.115-.163.489-.387.955-.657 1.393v-.26c0-1.654-1.346-3-3-3h-3c-.551 0-1-.448-1-1s.449-1 1-1h1v-2h-1c-1.492 0-2.733 1.095-2.962 2.523-.604.257-1.132.634-1.581 1.087l-.959-.48c-.924-.461-1.498-1.39-1.498-2.422 0-1.493 1.215-2.708 2.708-2.708zm-2.708 7.46c0-.28.052-.553.141-.813.149.097.3.192.462.273l.755.378c-.224.57-.358 1.183-.358 1.825v.347c-.618-.468-1-1.204-1-2.01zm3 1.663c0-1.068.563-2.029 1.438-2.563.528.863 1.479 1.44 2.562 1.44h3c.551 0 1 .448 1 1v2c0 2.206-1.794 4-4 4s-4-1.794-4-4zm4 7.877c.576 0 1.132-.086 1.659-.239l.199.797-1.858 1.24-1.859-1.239.199-.797c.528.152 1.084.238 1.66.238zm-5.414 2.657 1.421 3.552c-1.394-.583-2.87-.961-4.377-1.117.235-.432.526-.832.875-1.182.582-.583 1.299-1.005 2.081-1.253zm-6.209 2.447c-1.52.168-3.005.558-4.405 1.159l1.443-3.607c.781.248 1.498.671 2.081 1.253.352.354.645.759.881 1.195zm-9.947-1.949-1.065 1.065-.83-2.074.277-.069zm4.757-1.078.277.069-.83 2.074-1.065-1.065zm-3.187 2.337 2.544 2.544c-.741.413-1.45.885-2.117 1.419l-.427.343-.427-.343c-.667-.533-1.376-1.006-2.117-1.419zm-6.657-13.547c-.227-.683-.343-1.395-.343-2.115v-3.752c0-1.103.897-2 2-2h7c2.757 0 5 2.243 5 5v.752c0 .72-.116 1.432-.343 2.115-.163.489-.387.955-.657 1.393v-.137c0-2.029-1.217-3.824-3.038-4.6-.229-1.428-1.47-2.523-2.962-2.523h-1v2h1c.551 0 1 .448 1 1s-.449 1-1 1h-3c-1.654 0-3 1.346-3 3v.26c-.27-.438-.494-.904-.657-1.393zm2.657 1.133c0-.552.449-1 1-1h3c1.083 0 2.034-.577 2.562-1.439.876.533 1.438 1.494 1.438 2.562v1.877c0 2.206-1.794 4-4 4s-4-1.794-4-4zm4 8c.576 0 1.132-.086 1.659-.239l.199.797-1.858 1.24-1.859-1.239.199-.797c.528.152 1.084.238 1.66.238zm-5.414 2.657 1.443 3.607c-1.4-.601-2.885-.991-4.405-1.159.236-.437.528-.842.882-1.195.581-.583 1.298-1.005 2.08-1.253zm-17.454 9.198-2.132-.609v-4.246h-2v4h-2v-3.457c0-1.373.535-2.663 1.505-3.634.659-.658 1.484-1.126 2.387-1.352l1.321-.33c.521 1.604 2.012 2.773 3.787 2.773s3.266-1.169 3.787-2.773l1.321.33c.902.226 1.728.693 2.387 1.352.35.35.641.75.875 1.182-2.857.297-5.612 1.386-7.889 3.156l-.195.153c-1.263.982-2.322 2.152-3.154 3.455zm2.868-13.855c-2.206 0-4-1.794-4-4v-1.877c0-1.379.935-2.576 2.271-2.91l.084-.021c.658.642 1.514 1.085 2.473 1.223l2.313.331c.49.068.859.494.859.988v2.266c0 2.206-1.794 4-4 4zm0 2c.576 0 1.132-.086 1.659-.239l.332 1.326c-.047 1.062-.918 1.913-1.991 1.913s-1.944-.851-1.991-1.912l.332-1.326c.527.152 1.083.238 1.659.238zm0-17c4.411 0 8 3.589 8 8 0 2.614-.165 5.253-.488 7.845l-.301 2.406c-.511-.272-1.051-.491-1.618-.632l-1.769-.442-.328-1.31c1.514-1.092 2.504-2.864 2.504-4.867v-2.266c0-1.483-1.107-2.76-2.576-2.97l-2.313-.331c-1.203-.171-2.111-1.217-2.111-2.433v-1h-2v1c0 .501.085.987.242 1.441-1.934.724-3.242 2.576-3.242 4.682v1.877c0 2.003.99 3.775 2.503 4.866l-.328 1.31-1.768.442c-.567.141-1.107.36-1.618.632l-.301-2.406c-.323-2.591-.488-5.23-.488-7.844 0-4.411 3.589-8 8-8zm-7.633 31.735c-.764-.255-1.275-.943-1.341-1.735h2.835l2.322.664c-.3.677-.547 1.376-.734 2.098zm34.261 5.336c-2.208.883-3.86 1.954-5.045 2.908 1.066-2.67 3.499-4.696 6.475-5.12l4.934-.705c-.197 4.36-3.805 7.846-8.212 7.846h-2.484c1.053-.936 2.706-2.123 5.076-3.071zm-8.924 2.929h-2.484c-4.407 0-8.016-3.486-8.212-7.846l4.935.705c2.975.424 5.406 2.449 6.473 5.119-1.185-.954-2.837-2.024-5.044-2.907l-.743 1.857c2.37.949 4.023 2.137 5.075 3.072zm20.089 5.936-16.793 11.195v-13.131h3.78c5.635 0 10.22-4.585 10.22-10.22v-1.934l-7.225 1.032c-3.126.447-5.772 2.313-7.317 4.884-1.208-3.572-4.344-6.328-8.233-6.884l-7.225-1.031v1.934c0 5.634 4.585 10.219 10.22 10.219h3.78v1 1 13.131l-16.793-11.195c-3.261-2.173-5.207-5.81-5.207-9.729 0-3.634 1.645-6.997 4.515-9.229l.196-.153c2.342-1.821 5.267-2.825 8.234-2.825 3.034 0 6.01 1.044 8.378 2.939l1.677 1.341 1.677-1.341c2.368-1.895 5.344-2.939 8.378-2.939 2.967 0 5.892 1.004 8.233 2.825l.198.153c2.869 2.232 4.514 5.595 4.514 9.229 0 3.919-1.946 7.556-5.207 9.729zm9.839-14.201-3.082 1.027c-.186-.722-.434-1.421-.734-2.098l2.323-.664h2.835c-.066.792-.577 1.48-1.342 1.735z"/></g></svg>