<svg id="Layer_35" enable-background="new 0 0 64 64" height="512" viewBox="0 0 64 64" width="512" xmlns="http://www.w3.org/2000/svg"><path d="m17.5 51.5-9.46 9.46c-.67.67-1.57 1.04-2.5 1.04-.98 0-1.86-.4-2.5-1.04s-1.04-1.52-1.04-2.5c0-.93.37-1.83 1.04-2.5l9.46-9.46z" fill="#838f9b"/><path d="m21.19 47.81-3.69 3.69-5-5 3.69-3.69c1.25 2.04 2.96 3.75 5 5z" fill="#fcd770"/><path d="m55 19c3.87 0 7 2.69 7 6s-3.13 6-7 6-7-2.69-7-6 3.13-6 7-6z" fill="#fc6e51"/><ellipse cx="55" cy="25" fill="#ff826e" rx="3" ry="2"/><path d="m48.26 47.45c1.33 3.24.86 6.88-1.53 9.28-3.31 3.3-8.99 2.96-12.71-.75-1.75-1.75-2.74-3.95-2.96-6.12 1.39-.19 2.72-.57 3.96-1.12-.05 1.48.57 3.1 1.86 4.38 2.15 2.16 5.3 2.51 7.03.79 1.45-1.46 1.41-3.93.07-5.96.33.03.67.05 1.02.05 1.15 0 2.25-.19 3.26-.55z" fill="#fc6e51"/><path d="m43.98 47.95c1.34 2.03 1.38 4.5-.07 5.96-1.73 1.72-4.88 1.37-7.03-.79-1.29-1.28-1.91-2.9-1.86-4.38 1.52-.67 2.91-1.58 4.11-2.69 1.33 1.03 3 1.71 4.85 1.9z" fill="#ff826e"/><path d="m45 32c4.97 0 9 3.58 9 8 0 3.4-2.38 6.3-5.74 7.45-1.01.36-2.11.55-3.26.55-.35 0-.69-.02-1.02-.05-1.85-.19-3.52-.87-4.85-1.9.99-.9 1.85-1.93 2.57-3.07.88.62 2.03 1.02 3.3 1.02 2.76 0 5-1.79 5-4s-2.24-4-5-4c-.36 0-.7.03-1.05.09.04-.36.05-.72.05-1.09 0-1-.1-1.97-.28-2.91.42-.05.84-.09 1.28-.09z" fill="#fc6e51"/><path d="m45 36c2.76 0 5 1.79 5 4s-2.24 4-5 4c-1.27 0-2.42-.4-3.3-1.02 1.27-2.02 2.08-4.37 2.25-6.89.35-.06.69-.09 1.05-.09z" fill="#ff826e"/><circle cx="29" cy="35" fill="#e6e9ed" r="15"/><path d="m29.2 40c4.86 0 8.8-3.94 8.8-8.8 0-1.16-.23-2.31-.68-3.38 1.67 1.93 2.68 4.43 2.68 7.18 0 6.08-4.92 11-11 11s-11-4.92-11-11c0-2.75 1.01-5.25 2.68-7.18-.45 1.07-.68 2.22-.68 3.38 0 2.43.98 4.63 2.58 6.22 1.59 1.6 3.79 2.58 6.22 2.58z" fill="#69d6f4"/><path d="m37.32 27.82c.45 1.07.68 2.22.68 3.38 0 4.86-3.94 8.8-8.8 8.8h-.4c-2.43 0-4.63-.98-6.22-2.58-1.6-1.59-2.58-3.79-2.58-6.22 0-1.16.23-2.31.68-3.38.11-.26.23-.51.36-.76l3.38-6.34 3.11-5.84c.29-.54.85-.88 1.47-.88s1.18.34 1.47.88l3.11 5.84 3.38 6.34c.13.25.25.5.36.76z" fill="#ff826e"/><path d="m58 4c1.1 0 2.1.45 2.83 1.17.72.73 1.17 1.73 1.17 2.83 0 2.21-1.79 4-4 4h-20v-8h4 4 4 4z" fill="#ffeaa7"/><path d="m38 12v1c0 .55-.45 1-1 1h-2c-.55 0-1-.45-1-1v-10c0-.55.45-1 1-1h2c.55 0 1 .45 1 1v1z" fill="#fcd770"/><path d="m32.553 29.412c.293.548.447 1.166.447 1.788 0 2.095-1.705 3.8-3.8 3.8h-.2v2h.2c3.198 0 5.8-2.602 5.8-5.8 0-.948-.236-1.893-.682-2.729l-2.102-3.941-1.765.941z"/><path d="m28.733 20.867h2v2.267h-2z" transform="matrix(.882 -.471 .471 .882 -6.854 16.577)"/><path d="m35 15h2c1.103 0 2-.897 2-2h19c2.757 0 5-2.243 5-5s-2.243-5-5-5h-19c0-1.103-.897-2-2-2h-2c-1.103 0-2 .897-2 2v10c0 1.103.897 2 2 2zm6-10v2h2v-2h2v4h2v-4h2v2h2v-2h2v4h2v-4h2v2h2v-1.816c1.161.414 2 1.514 2 2.816 0 1.654-1.346 3-3 3h-19v-6zm-6-2h2l.001 10h-2.001z"/><path d="m45 31c-.163 0-.333.009-.504.018-1.303-5.11-5.073-9.309-10.209-11.105l-2.933-5.5c-.464-.872-1.366-1.413-2.354-1.413s-1.89.541-2.354 1.413l-2.933 5.5c-6.422 2.245-10.713 8.25-10.713 15.087 0 2.765.706 5.368 1.946 7.64l-12.617 12.618c-.857.856-1.329 1.996-1.329 3.207 0 2.501 2.035 4.535 4.536 4.535 1.212 0 2.351-.472 3.207-1.328l12.617-12.618c2.272 1.24 4.875 1.946 7.64 1.946.409 0 .81-.031 1.211-.061.423 2.134 1.501 4.147 3.103 5.748 1.97 1.97 4.511 3.141 7.156 3.296.201.013.401.019.6.019 2.456 0 4.697-.9 6.364-2.567 2.368-2.367 3.124-5.973 2.073-9.41 3.253-1.488 5.493-4.522 5.493-8.025 0-4.963-4.486-9-10-9zm0 6c2.206 0 4 1.346 4 3s-1.794 3-4 3c-.676 0-1.332-.146-1.924-.401.921-1.7 1.531-3.588 1.783-5.586.046-.002.096-.013.141-.013zm-16.588-21.646c.116-.219.341-.354.588-.354s.472.135.588.354l6.494 12.176c.601 1.124.918 2.394.918 3.67 0 4.301-3.499 7.8-7.8 7.8h-.4c-4.301 0-7.8-3.499-7.8-7.8 0-1.276.317-2.546.917-3.671zm10.588 19.646c0 5.514-4.486 10-10 10s-10-4.486-10-10c0-.642.067-1.277.188-1.9.888 4.497 4.858 7.9 9.611 7.9h.4c4.753 0 8.724-3.403 9.611-7.9.123.623.19 1.258.19 1.9zm-31.671 25.258c-.479.478-1.116.742-1.793.742-1.398 0-2.536-1.138-2.536-2.535 0-.677.264-1.313.743-1.793l8.757-8.758 3.586 3.586zm10.171-10.172-3.586-3.586 2.138-2.138c.999 1.377 2.209 2.587 3.586 3.586zm-2.5-15.086c0-5.166 2.802-9.786 7.183-12.218l-2.03 3.806c-.118.221-.212.454-.312.684-1.83 2.165-2.841 4.901-2.841 7.728 0 6.617 5.383 12 12 12s12-5.383 12-12c0-2.827-1.011-5.563-2.841-7.728-.101-.23-.194-.462-.312-.684l-2.03-3.806c4.381 2.432 7.183 7.052 7.183 12.218 0 7.72-6.28 14-14 14s-14-6.28-14-14zm28.36 13.873c.883 1.591.841 3.323-.161 4.326-1.333 1.335-3.853.982-5.616-.781-.87-.87-1.418-1.985-1.537-3.075 1.128-.556 2.189-1.227 3.149-2.022 1.241.799 2.668 1.327 4.165 1.552zm2.66 7.147c-1.393 1.393-3.324 2.091-5.432 1.967-2.155-.127-4.236-1.091-5.859-2.714-1.289-1.289-2.162-2.895-2.526-4.595.665-.136 1.308-.325 1.941-.541.27 1.344.97 2.64 2.025 3.696 1.425 1.426 3.242 2.162 4.936 2.162 1.328 0 2.58-.452 3.509-1.381 1.4-1.401 1.72-3.562.976-5.64.7-.037 1.379-.137 2.033-.298.804 2.712.222 5.518-1.603 7.344zm-1.02-9.02c-1.534 0-3.024-.394-4.306-1.116.463-.497.895-1.021 1.292-1.573.916.448 1.956.689 3.014.689 3.309 0 6-2.243 6-5s-2.691-5-6-5c0-.675-.054-1.339-.136-1.995.045-.001.093-.005.136-.005 4.411 0 8 3.141 8 7s-3.589 7-8 7z"/><path d="m55 22c-2.168 0-4 1.374-4 3s1.832 3 4 3 4-1.374 4-3-1.832-3-4-3zm0 4c-1.299 0-2-.71-2-1s.701-1 2-1 2 .71 2 1-.701 1-2 1z"/><path d="m55 18c-4.411 0-8 3.141-8 7s3.589 7 8 7 8-3.141 8-7-3.589-7-8-7zm0 12c-3.309 0-6-2.243-6-5s2.691-5 6-5 6 2.243 6 5-2.691 5-6 5z"/></svg>