<svg id="_x33_0" enable-background="new 0 0 64 64" height="512" viewBox="0 0 64 64" width="512" xmlns="http://www.w3.org/2000/svg"><g><g><g><path d="m54 56h-4.19c.26-.3.48-.64.67-1 .21-.42.38-.87.49-1.35.3-1.33.85-2.57 1.63-3.65h2.4c3.87 0 7 3.13 7 7v4c0 .55-.45 1-1 1h-4c-.55 0-1-.45-1-1v-3c0-1.1-.9-2-2-2z" fill="#ecc19c"/></g><g><path d="m59.89 40.46-.54-2.69c-.2-1.03-1.1-1.77-2.15-1.77-.61 0-1.16.24-1.56.64s-.64.95-.64 1.56c0 1.65-1.11 3.1-2.71 3.52l-5.09 1.36c-1.48.39-2.81 1.12-3.91 2.1-.47.41-.9.87-1.28 1.36-.27.35-.52.72-.73 1.11-.42.73-.75 1.52-.96 2.35-.21.79-.32 1.61-.32 2.45 0 1.53.62 2.92 1.62 3.93.43.42.92.77 1.46 1.03v.01c.68.34 1.44.54 2.25.57.07.01.15.01.22.01 1.3 0 2.51-.45 3.47-1.22.29-.23.55-.49.79-.78.26-.3.48-.64.67-1 .21-.42.38-.87.49-1.35.3-1.33.85-2.57 1.63-3.65.07-.1.15-.21.23-.31.91-1.17 2.07-2.14 3.43-2.82l.66-.33c.94-.47 1.72-1.19 2.25-2.05.53-.87.83-1.88.83-2.94 0-.36-.04-.73-.11-1.09z" fill="#f0d0b4"/></g><g><path d="m45.33 58 .58 1.74c.06.17.09.35.09.54 0 .95-.77 1.72-1.72 1.72h-6.42c-5.27 0-9.92-3.44-11.47-8.47l-1.35-4.4v-.01c1.3.58 2.71.88 4.14.88 3.06 0 5.95-1.36 7.9-3.7l1.39-1.66c.54 1.28 1.52 2.35 2.8 3l.01.01c-.42.73-.75 1.52-.96 2.35-.21.79-.32 1.61-.32 2.45 0 1.53.62 2.92 1.62 3.93.43.42.92.77 1.46 1.03v.01c.68.34 1.44.54 2.25.57z" fill="#ecc19c"/></g><g><path d="m45.34 34c-2.81 1.29-5.09 3.51-6.48 6.28l-.86 1.72c-.03-3.61-.47-7.2-1.29-10.7-.14-.6-.3-1.2-.46-1.8l.33.39c1.08 1.31 2.43 2.33 3.93 3.03 1.49.7 3.14 1.08 4.83 1.08z" fill="#ecc19c"/></g><g><path d="m53 6h-7c-7.49 0-13.61 5.89-13.98 13.29l-.01.01c-1.13-1.71-2.62-3.13-4.32-4.18-2.21-1.36-4.79-2.12-7.48-2.12-3.93 0-7.48 1.59-10.05 4.16s-4.16 6.12-4.16 10.05c0 1.75.11 3.51.34 5.24-2.75-2.45-4.34-5.97-4.34-9.68 0-2.65.81-5.17 2.23-7.26 1.42-2.1 3.46-3.79 5.92-4.77l14.62-5.85c4.78-1.91 9.87-2.89 15.02-2.89 2.35 0 4.67.35 6.9 1.02 2.23.68 4.35 1.68 6.31 2.98z" fill="#ecc19c"/></g><g><path d="m38.47 44.64-1.39 1.66c-1.95 2.34-4.84 3.7-7.9 3.7-1.43 0-2.84-.3-4.14-.88-.01 0-.02-.01-.03-.01l-7.01-3.11v-1.92c0-4.46 3.62-8.08 8.08-8.08 1.89 0 3.71.66 5.17 1.87l1.32 1.11c1.61 1.33 3.45 2.36 5.43 3.02v.34c0 .81.17 1.59.47 2.3z" fill="#ed5565"/></g><g><path d="m36.71 31.3c.82 3.5 1.26 7.09 1.29 10.7-1.98-.66-3.82-1.69-5.43-3.02l-1.32-1.11c-1.46-1.21-3.28-1.87-5.17-1.87-4.46 0-8.08 3.62-8.08 8.08v1.92l-5.34.94c-.21.04-.42.06-.63.06-1.76 0-3.26-1.25-3.59-2.97l-1.74-9.31c-.14-.75-.26-1.51-.36-2.27-.23-1.73-.34-3.49-.34-5.24 0-3.93 1.59-7.48 4.16-10.05s6.12-4.16 10.05-4.16c2.69 0 5.27.76 7.48 2.12 1.7 1.05 3.19 2.47 4.32 4.18.34.5.65 1.02.92 1.56 1.39 2.78 2.5 5.67 3.32 8.64.16.6.32 1.2.46 1.8z" fill="#ef7385"/></g><g><path d="m62 9.35c0 .43-.08.85-.24 1.25l-6.74 16.85c-.67 1.67-1.76 3.14-3.17 4.27-1.84 1.47-4.14 2.28-6.51 2.28-1.69 0-3.34-.38-4.83-1.08-1.5-.7-2.85-1.72-3.93-3.03l-.33-.39c-.82-2.97-1.93-5.86-3.32-8.64-.27-.54-.58-1.06-.92-1.56l.01-.01c.37-7.4 6.49-13.29 13.98-13.29h7 5.65c1.85 0 3.35 1.5 3.35 3.35z" fill="#ef7385"/></g></g><g><path d="m25.083 26h5.917v-2h-5.917c-4.015 0-7.409 2.875-8.069 6.835l1.973.329c.498-2.992 3.062-5.164 6.096-5.164z"/><path d="m17.309 35.619.586-1.171-1.789-.895-.586 1.171c-.792 1.585-2.155 2.767-3.835 3.327l.632 1.897c2.187-.728 3.96-2.266 4.992-4.329z"/><path d="m55 49h-.135c.558-.479 1.173-.9 1.848-1.238l.651-.326c2.243-1.122 3.636-3.376 3.636-5.884 0-.434-.043-.868-.128-1.29l-.538-2.691c-.298-1.49-1.617-2.571-3.136-2.571-1.763 0-3.198 1.435-3.198 3.198 0 1.197-.808 2.249-1.965 2.558l-5.093 1.358c-2.479.661-4.554 2.171-5.964 4.161-1.234-.919-1.978-2.357-1.978-3.936 0-.032-.003-.065-.003-.097l.759-1.517c1.251-2.503 3.326-4.531 5.849-5.736 2.492-.058 4.925-.932 6.874-2.492 1.539-1.23 2.738-2.847 3.47-4.676l6.74-16.851c.207-.516.311-1.06.311-1.616 0-2.401-1.953-4.354-4.354-4.354h-5.364c-4.029-2.612-8.684-4-13.493-4-5.296 0-10.475.997-15.393 2.964l-14.623 5.849c-5.329 2.133-8.773 7.219-8.773 12.959 0 3.846 1.604 7.514 4.394 10.145.092.665.198 1.328.321 1.987l1.745 9.306c.411 2.196 2.332 3.79 4.566 3.79.271 0 .543-.024.809-.071l5.038-.891 6.344 2.82 1.22 3.965c1.69 5.489 6.683 9.177 12.426 9.177h6.417c1.5 0 2.721-1.221 2.721-2.721 0-.293-.047-.583-.14-.86l-.172-.517c1.387-.24 2.618-.923 3.563-1.902h3.748c.551 0 1 .449 1 1v3c0 1.103.897 2 2 2h4c1.103 0 2-.897 2-2v-4c0-4.411-3.589-8-8-8zm-10.759 7.785c.156-.733.355-1.451.609-2.147 1.177.586 2.433.992 3.728 1.198-.809.725-1.867 1.164-3.029 1.164-.458 0-.891-.088-1.308-.215zm-3.131-5.689c.951.154 1.835.542 2.599 1.13-.547 1.118-.979 2.293-1.285 3.514-.873-.829-1.424-1.993-1.424-3.289 0-.46.04-.912.11-1.355zm8.88 2.342c-.039.177-.102.342-.16.509-1.461-.105-2.877-.5-4.18-1.165.906-1.754 2.148-3.316 3.64-4.631l.272.091c.815.272 1.519.782 2.046 1.448-.754 1.124-1.315 2.385-1.618 3.748zm-2.532-9.392 5.093-1.358c2.031-.541 3.449-2.388 3.449-4.49 0-.66.538-1.198 1.198-1.198.569 0 1.063.405 1.175.963l.538 2.692c.059.294.089.595.089.897 0 1.745-.97 3.314-2.531 4.095l-.651.326c-1.106.553-2.093 1.277-2.935 2.133-.504-.552-1.098-1.012-1.763-1.358.085-.055.161-.12.247-.173l1.163-.727-1.061-1.696-1.163.727c-1.231.77-2.338 1.689-3.332 2.71-.553-.906-1.251-1.709-2.055-2.401.766-.505 1.617-.896 2.539-1.142zm-4.096 2.457c.927.737 1.676 1.659 2.21 2.718-.305.4-.601.806-.872 1.23-.911-.648-1.944-1.093-3.041-1.304.405-.98.982-1.875 1.703-2.644zm-4.545-8.127c-.16-1.948-.437-3.884-.827-5.8 1.309.966 2.791 1.66 4.37 2.051-1.39 1.028-2.592 2.298-3.543 3.749zm22.183-29.022c0 .301-.057.595-.168.874l-6.74 16.851c-.603 1.508-1.593 2.842-2.862 3.857-1.665 1.331-3.754 2.064-5.886 2.064-3.099 0-6.013-1.365-7.997-3.745l-.222-.266c-.835-2.955-1.93-5.835-3.302-8.578-.236-.472-.501-.921-.778-1.36.489-6.78 6.118-12.051 12.955-12.051h12.646c1.298 0 2.354 1.056 2.354 2.354zm-58 13.418c0-4.917 2.95-9.275 7.517-11.102l14.623-5.849c4.68-1.872 9.609-2.821 14.649-2.821 3.239 0 6.4.692 9.318 2h-3.107c-7.177 0-13.196 5.038-14.651 11.837-2.828-3.05-6.818-4.837-11.134-4.837-8.39 0-15.215 6.825-15.215 15.215 0 .75.027 1.5.067 2.251-1.325-1.961-2.067-4.285-2.067-6.694zm9.486 23.187c-1.405.253-2.798-.715-3.061-2.118l-1.745-9.306c-.451-2.406-.68-4.869-.68-7.32 0-7.287 5.928-13.215 13.215-13.215 5.038 0 9.567 2.799 11.819 7.305 2.978 5.955 4.651 12.563 4.912 19.218-1.345-.592-2.597-1.367-3.736-2.316l-1.325-1.103c-1.627-1.357-3.69-2.104-5.809-2.104-5.004 0-9.076 4.072-9.076 9.076v1.085zm6.514-1.883c0-3.902 3.174-7.076 7.076-7.076 1.652 0 3.261.583 4.53 1.641l1.325 1.103c1.527 1.272 3.243 2.252 5.094 2.951.03.602.132 1.186.308 1.744l-1.017 1.221c-1.77 2.122-4.37 3.34-7.133 3.34-1.308 0-2.577-.269-3.771-.8l-6.412-2.85zm25.279 16.924h-6.417c-4.859 0-9.084-3.121-10.514-7.765l-.786-2.553c.855.204 1.729.318 2.621.318 3.359 0 6.519-1.48 8.67-4.061l.463-.556c.453.627 1.001 1.187 1.652 1.638-.621 1.362-.968 2.864-.968 4.43 0 3.283 2.431 6.002 5.586 6.47l.377 1.13c.024.074.037.151.037.228 0 .398-.323.721-.721.721zm16.721 0h-4v-3c0-1.654-1.346-3-3-3h-2.42c.151-.36.274-.735.362-1.128.23-1.035.638-2.002 1.189-2.872h1.869c3.309 0 6 2.691 6 6z"/><path d="m32.895 53.553-1.789.895c.741 1.482 1.965 2.707 3.447 3.447l.895-1.789c-1.098-.549-2.005-1.456-2.553-2.553z"/></g></g></svg>