<svg id="Capa_1" enable-background="new 0 0 512 512" height="512" viewBox="0 0 512 512" width="512" xmlns="http://www.w3.org/2000/svg"><g><g><path d="m45.287 186.9c11.945-6.198 26.653-1.539 32.851 10.406l16.947 32.662v-155.46c0-13.457 10.909-24.366 24.366-24.366s24.366 10.909 24.366 24.366v-42.642c0-13.457 10.909-24.366 24.366-24.366s24.366 10.909 24.366 24.366v30.458c0-13.457 10.909-24.366 24.366-24.366s24.366 10.909 24.366 24.366v43.657c0-13.457 10.909-24.366 24.366-24.366s24.366 10.909 24.366 24.366v398.519h-194.929v-168.718l-60.203-116.032c-6.198-11.945-1.539-26.652 10.406-32.85z" fill="#fcd0a3"/><path d="m265.65 81.615c-3.039 0-5.947.561-8.63 1.578 9.197 3.485 15.737 12.371 15.737 22.789v398.518h17.26v-398.519c-.001-13.457-10.91-24.366-24.367-24.366z" fill="#ffb983"/><path d="m67.477 207.967 16.105 31.123c2.933 5.668 11.502 3.583 11.502-2.8v-6.446l-16.947-32.538c-6.198-11.945-20.905-16.604-32.851-10.406-4.697 2.437-8.262 6.193-10.488 10.577 11.915-6.066 26.511-1.398 32.679 10.49z" fill="#ffb983"/><path d="m290.016 504.5v-205.726c-14.535 2.187-36.073 9.677-48.733 33.968-20.411 39.162-38.824 44.116-59.177 44.116-33.598 0-50.073 19.599-47.412 47.412 2.582 26.983 28.089 38.191 58.072 42.29 16.9 2.31 36.049 8.722 36.049 26.644 0 3.72-1.153 7.545-4.014 11.297h65.215z" fill="#f8b0b0"/><path d="m272.757 504.5h17.26v-205.726c-5.116.77-11.101 2.202-17.26 4.787z" fill="#fc8086"/></g><g><path d="m405.527 215.152c-52.857-13.539-106.681 18.335-120.22 71.192-5.146 20.092-3.725 40.322 2.91 58.428l-20.473 32.259 38.656-1.413c12.714 14.674 29.866 25.763 50.098 30.945 52.857 13.539 106.681-18.335 120.22-71.192 13.539-52.855-18.334-106.68-71.191-120.219z" fill="#90d8f9"/><circle cx="381.013" cy="310.858" fill="#ffb983" r="72.666"/><g fill="#fc8086"><circle cx="383.325" cy="278.696" r="15.076"/><circle cx="405.436" cy="329.954" r="15.076"/><circle cx="351.163" cy="322.919" r="15.076"/></g></g><g><path d="m175.179 401.637c-4.441 0-8.041 3.6-8.041 8.04s3.6 8.04 8.041 8.04 8.04-3.6 8.04-8.04-3.6-8.04-8.04-8.04z"/><path d="m249.955 382.888c0-4.441-3.6-8.04-8.041-8.04s-8.04 3.6-8.04 8.04c0 4.441 3.6 8.041 8.04 8.041s8.041-3.6 8.041-8.041z"/><path d="m213.694 406.124c0 4.441 3.6 8.041 8.04 8.041s8.04-3.6 8.04-8.041-3.6-8.04-8.04-8.04-8.04 3.599-8.04 8.04z"/><path d="m255.405 431.811c-4.441 0-8.04 3.6-8.04 8.041s3.6 8.041 8.04 8.041c4.441 0 8.041-3.6 8.041-8.041s-3.601-8.041-8.041-8.041z"/><path d="m255.405 477.273c-4.441 0-8.04 3.6-8.04 8.041s3.6 8.04 8.04 8.04c4.441 0 8.041-3.6 8.041-8.04-.001-4.441-3.601-8.041-8.041-8.041z"/><path d="m196.135 442.187c0 4.441 3.6 8.041 8.04 8.041 4.441 0 8.041-3.6 8.041-8.041s-3.6-8.04-8.041-8.04c-4.44-.001-8.04 3.599-8.04 8.04z"/><path d="m290.015 444.643c-4.143 0-7.5 3.358-7.5 7.5v52.357c0 4.142 3.357 7.5 7.5 7.5s7.5-3.358 7.5-7.5v-52.357c0-4.142-3.357-7.5-7.5-7.5z"/><path d="m136.315 74.51c0 .013.002.026.002.039v160.371c0 4.142 3.357 7.5 7.5 7.5s7.5-3.358 7.5-7.5l-.002-203.05c0-9.302 7.568-16.87 16.87-16.87s16.87 7.568 16.87 16.87l-.005 203.05c0 4.142 3.357 7.5 7.5 7.5s7.5-3.358 7.5-7.5v-172.503c0-.032.005-.064.005-.097 0-9.296 7.563-16.86 16.859-16.86 9.302 0 16.87 7.563 16.87 16.86l-.001 172.601c0 4.142 3.357 7.5 7.5 7.5s7.5-3.358 7.5-7.5v-128.922c0-.006.001-.013.001-.019 0-9.302 7.563-16.87 16.86-16.87 9.302 0 16.87 7.568 16.87 16.87v57.895c0 4.142 3.357 7.5 7.5 7.5s7.5-3.358 7.5-7.5v-57.895c0-17.573-14.297-31.87-31.87-31.87-6.187 0-11.967 1.773-16.86 4.838v-16.628c0-17.567-14.297-31.86-31.87-31.86-6.187 0-11.966 1.772-16.859 4.836v-3.426c0-17.573-14.297-31.87-31.87-31.87s-31.87 14.297-31.87 31.87v15.608c-4.894-3.065-10.674-4.838-16.86-4.838-17.573 0-31.87 14.297-31.87 31.87v124.726l-2.79-5.375c-3.916-7.56-10.542-13.14-18.659-15.711-8.114-2.571-16.746-1.828-24.307 2.095-15.595 8.099-21.695 27.372-13.601 42.96l59.356 114.405v34.016c0 4.142 3.357 7.5 7.5 7.5s7.5-3.358 7.5-7.5v-35.846c0-1.202-.289-2.387-.843-3.454l-60.2-116.032c-4.285-8.251-1.055-18.451 7.197-22.736 4.001-2.076 8.571-2.469 12.865-1.109 4.294 1.361 7.8 4.313 9.874 8.316l16.949 32.66c1.592 3.068 5.074 4.652 8.436 3.832 3.358-.819 5.722-3.829 5.722-7.286v-155.461c0-9.302 7.568-16.87 16.87-16.87 9.297 0 16.861 7.568 16.861 16.87z"/><path d="m95.084 399.831c-4.143 0-7.5 3.358-7.5 7.5v97.169c0 4.142 3.357 7.5 7.5 7.5s7.5-3.358 7.5-7.5v-97.169c0-4.143-3.357-7.5-7.5-7.5z"/><path d="m472.475 256.697c-14.468-24.431-37.582-41.765-65.087-48.81-41.965-10.746-84.605 5.223-109.873 37.207v-46.143c0-4.142-3.357-7.5-7.5-7.5s-7.5 3.358-7.5 7.5v71.94c-1.77 4.369-3.273 8.902-4.475 13.592-.839 3.277-1.506 6.576-2.029 9.885-13.701 4.418-30.497 14.031-41.377 34.906-19.321 37.07-35.221 40.086-52.529 40.086-18.689 0-33.705 5.652-43.425 16.346-9.002 9.904-12.962 23.486-11.451 39.278 2.583 27.017 24.291 43.505 64.521 49.007 19.618 2.682 29.565 9.145 29.565 19.209 0 2.36-.81 4.569-2.474 6.752-2.512 3.293-1.878 8 1.416 10.511 1.358 1.036 2.957 1.537 4.542 1.537 2.26 0 4.494-1.017 5.97-2.953 3.68-4.826 5.546-10.158 5.546-15.847 0-12.891-7.379-29.266-42.533-34.071-32.877-4.496-49.762-16.132-51.621-35.574-1.097-11.47 1.538-21.069 7.62-27.761 6.799-7.481 17.977-11.435 32.324-11.435 9.929 0 21.683-1.014 33.576-8.536 11.65-7.369 22.2-20.327 32.254-39.617 6.118-11.737 15.102-20.212 26.76-25.324-.006 11.131 1.747 22.22 5.25 32.925l-18.534 29.204c-1.492 2.352-1.56 5.336-.173 7.751 1.386 2.415 4.007 3.872 6.778 3.763l14.498-.53v33.11c0 4.142 3.357 7.5 7.5 7.5s7.5-3.358 7.5-7.5v-33.658l5.647-.206c13.868 14.95 31.591 25.495 51.475 30.587 8.799 2.253 17.709 3.368 26.56 3.368 18.816 0 37.361-5.039 53.978-14.877 24.43-14.467 41.765-37.582 48.81-65.087 7.045-27.503 2.958-56.105-11.509-80.535zm-3.022 76.815c-6.051 23.623-20.939 43.476-41.922 55.902-20.981 12.425-45.549 15.937-69.171 9.885-18.094-4.634-34.101-14.521-46.292-28.591-1.427-1.647-3.497-2.589-5.667-2.589-.092 0-.184.001-.274.005l-24.413.892 12.836-20.225c1.25-1.97 1.513-4.409.71-6.6-6.36-17.353-7.289-36.021-2.688-53.986 12.492-48.766 62.337-78.277 111.094-65.787 23.624 6.051 43.477 20.938 55.902 41.921s15.935 45.549 9.885 69.173z"/><path d="m381.012 230.692c-44.204 0-80.166 35.962-80.166 80.167 0 44.204 35.962 80.166 80.166 80.166s80.167-35.962 80.167-80.166c0-44.205-35.963-80.167-80.167-80.167zm0 145.332c-35.933 0-65.166-29.233-65.166-65.166s29.233-65.167 65.166-65.167c35.934 0 65.167 29.233 65.167 65.167 0 35.933-29.233 65.166-65.167 65.166z"/><path d="m405.901 278.696c0-12.448-10.128-22.576-22.576-22.576s-22.575 10.127-22.575 22.576 10.127 22.576 22.575 22.576 22.576-10.127 22.576-22.576zm-30.152 0c0-4.177 3.398-7.576 7.575-7.576 4.178 0 7.576 3.398 7.576 7.576s-3.398 7.576-7.576 7.576c-4.176 0-7.575-3.398-7.575-7.576z"/><path d="m405.436 307.378c-12.448 0-22.576 10.127-22.576 22.576s10.128 22.576 22.576 22.576 22.576-10.127 22.576-22.576c0-12.448-10.128-22.576-22.576-22.576zm0 30.152c-4.178 0-7.576-3.398-7.576-7.576 0-4.177 3.398-7.576 7.576-7.576s7.576 3.398 7.576 7.576-3.398 7.576-7.576 7.576z"/><path d="m351.164 300.343c-12.448 0-22.576 10.127-22.576 22.576 0 12.448 10.128 22.576 22.576 22.576s22.575-10.127 22.575-22.576-10.127-22.576-22.575-22.576zm0 30.152c-4.178 0-7.576-3.398-7.576-7.576s3.398-7.576 7.576-7.576c4.177 0 7.575 3.398 7.575 7.576 0 4.177-3.399 7.576-7.575 7.576z"/></g></g></svg>