<svg height="512pt" viewBox="-61 0 512 512.00048" width="512pt" xmlns="http://www.w3.org/2000/svg"><path d="m316.230469 110.691406-47.097657 10.199219c-18.898437-19.199219-45.292968-30.898437-74.09375-30.898437-28.800781 0-55.199218 11.699218-74.09375 30.898437l-49.796874-15.898437 17.097656-60.296876c27-27.597656 65.09375-44.695312 106.792968-44.695312 41.695313 0 79.792969 17.097656 106.792969 44.695312zm0 0" fill="#ae2538"/><path d="m316.230469 110.691406-47.097657 10.199219c-18.898437-19.199219-45.292968-30.898437-74.09375-30.898437v-89.992188c41.695313 0 79.792969 17.097656 106.792969 44.695312zm0 0" fill="#99132f"/><path d="m301.832031 44.695312-5.699219 23.101563c-5.097656 19.199219-14.097656 37.496094-27 53.09375-11.699218 15.601563-2.097656 3.902344-74.09375 85.796875-37.199218 42.296875-96.292968 109.492188-191.386718 218.382812-3.902344 4.503907-4.800782 10.800782-2.101563 16.199219 2.402344 5.402344 7.5 8.699219 13.5 8.699219h59.996094v47c0 6.597656 4.199219 12.296875 10.199219 14.394531 6 1.800781 12.898437-.296875 16.800781-5.398437l92.992187-129.492188 67.796876-92.695312 55.195312-75.890625c36.898438-50.695313 32.996094-113.394531-16.199219-163.191407zm0 0" fill="#e63950"/><path d="m318.03125 207.886719-55.195312 75.894531-67.796876 92.695312v-169.789062c71.996094-81.898438 62.398438-70.199219 74.09375-85.796875 12.902344-15.597656 21.898438-33.898437 27-53.09375l5.699219-23.101563c49.195313 49.796876 53.097657 112.496094 16.199219 163.191407zm0 0" fill="#ae2538"/><path d="m386.425781 425.070312-123.589843-141.292968-4.503907-5.398438c-24.597656-28.199218-45.59375-52.195312-63.292969-72.292968-48.898437-56.398438-72.296874-83.097657-74.09375-85.195313-12.902343-15.597656-21.902343-33.898437-27-53.097656l-5.699218-23.097657c-47.097656 47.695313-55.496094 109.792969-16.199219 163.1875l55.496094 75.894532 67.496093 92.695312 92.992188 129.492188c3.898438 5.101562 10.800781 7.199218 16.800781 5.402344 6-2.101563 10.199219-7.800782 10.199219-14.398438v-46.996094h59.996094c6 0 11.097656-3.300781 13.5-8.703125 2.699218-5.398437 1.796875-11.699219-2.101563-16.199219zm0 0" fill="#ff637b"/><path d="m388.527344 441.269531c-2.402344 5.402344-7.5 8.699219-13.5 8.699219h-59.996094v47c0 6.597656-4.199219 12.296875-10.199219 14.394531-6 1.800781-12.902343-.296875-16.800781-5.398437l-92.992188-129.492188v-170.386718c17.699219 20.097656 38.695313 44.097656 63.296876 72.292968l4.5 5.402344 123.589843 141.289062c3.898438 4.5 4.800781 10.800782 2.101563 16.199219zm0 0" fill="#e63950"/></svg>