<svg height="512" viewBox="0 0 58 58" width="512" xmlns="http://www.w3.org/2000/svg"><g id="001---Donate-Blood" fill="none"><path id="Shape" d="m20 5.11v15.89c0 6.288-2 5.91-2 8.92v26.08c-.0032948 1.1032019-.8967981 1.9967052-2 2h-9c-1.10320187-.0032948-1.9967052-.8967981-2-2v-24.93c-.00028119-1.3235245-.52531046-2.5929446-1.46-3.53l-2.08-2.08c-.93468953-.9370554-1.45971881-2.2064755-1.46-3.53v-4.93c.01251915-1.6516409 1.34835915-2.9874808 3-3h1v-10.89c-.02524836-1.13297379.86729764-2.07460983 2-2.11 1.10320187.0032948 1.9967052.89679813 2 2v-.95c-.01713776-.81542864.46259423-1.55957467 1.21237061-1.8805933.74977638-.32101862 1.61937279-.15459091 2.19762939.4205933.738.718.59 1.575.59 2.41.0033854-.80631139.4906258-1.5317303 1.2357575-1.83983461s1.6024026-.13862704 2.1742425.42983461c.743.723.59 1.39.59 3.41.0005287-.56140576.2369897-1.09674045.6516211-1.47523422.4146313-.37849377.9692512-.56529257 1.5283789-.51476578 1.0548029.13087409 1.8403758 1.03730433 1.82 2.1z" fill="#fdd7ad"/><g fill="#f9c795"><path id="Shape" d="m16 3v12c0 .5522847-.4477153 1-1 1s-1-.4477153-1-1v-14c1.1032019.0032948 1.9967052.89679813 2 2z"/><path id="Shape" d="m4 14v6c0 .5522847-.44771525 1-1 1s-1-.4477153-1-1v-5.82c.64818977-.1917415 1.32799037-.2529236 2-.18z"/><path id="Shape" d="m12 2v13c0 .5522847-.4477153 1-1 1s-1-.4477153-1-1v-15c1.1032019.0032948 1.9967052.89679813 2 2z"/><path id="Shape" d="m8 3v12c0 .5522847-.44771525 1-1 1s-1-.4477153-1-1v-14c1.10320187.0032948 1.9967052.89679813 2 2z"/></g><path id="Shape" d="m38 54h-21c-3.8641657-.0044086-6.9955914-3.1358343-7-7v-17c0-.5522847.4477153-1 1-1s1 .4477153 1 1v17c.0033061 2.7600532 2.2399468 4.9966939 5 5h21c2.7600532-.0033061 4.9966939-2.2399468 5-5v-4c0-.5522847.4477153-1 1-1s1 .4477153 1 1v4c-.0044086 3.8641657-3.1358343 6.9955914-7 7z" fill="#e64c3c"/><path id="Shape" d="m41 39h6v3c0 1.1045695-.8954305 2-2 2h-2c-1.1045695 0-2-.8954305-2-2z" fill="#84b5cb"/><path id="Shape" d="m13 34h-4c-.55228475 0-1-.4477153-1-1s.44771525-1 1-1h4c.5522847 0 1 .4477153 1 1s-.4477153 1-1 1z" fill="#ecf0f1"/><path id="Shape" d="m13 39h-4c-.55228475 0-1-.4477153-1-1s.44771525-1 1-1h4c.5522847 0 1 .4477153 1 1s-.4477153 1-1 1z" fill="#ecf0f1"/><path id="Shape" d="m58 8v30c-.0032948 1.1032019-.8967981 1.9967052-2 2h-24c-1.1032019-.0032948-1.9967052-.8967981-2-2v-30c.0032948-1.10320187.8967981-1.9967052 2-2h2c1.1045695 0 2-.8954305 2-2v-2c.0032948-1.10320187.8967981-1.9967052 2-2h12c1.1032019.0032948 1.9967052.89679813 2 2v2c0 1.1045695.8954305 2 2 2h2c1.1032019.0032948 1.9967052.89679813 2 2z" fill="#9fc9d3"/><path id="Shape" d="m54 20v15c0 .5522847-.4477153 1-1 1h-18c-.5522847 0-1-.4477153-1-1v-15z" fill="#e64c3c"/><path id="Shape" d="m54 11v9h-20v-9c0-.5522847.4477153-1 1-1h18c.5522847 0 1 .4477153 1 1z" fill="#84b5cb"/><circle id="Oval" cx="44" cy="4" fill="#84b5cb" r="1"/><path id="Shape" d="m54 23v2h-3c-.5522847 0-1-.4477153-1-1s.4477153-1 1-1z" fill="#35495e"/><path id="Shape" d="m54 27v2h-4c-.5522847 0-1-.4477153-1-1s.4477153-1 1-1z" fill="#35495e"/><path id="Shape" d="m54 31v2h-3c-.5522847 0-1-.4477153-1-1s.4477153-1 1-1z" fill="#35495e"/></g></svg>