<svg id="Capa_1" enable-background="new 0 0 497 497" height="512" viewBox="0 0 497 497" width="512" xmlns="http://www.w3.org/2000/svg"><g><path d="m474.527 186.508c-12.411 0-22.473 10.062-22.473 22.473v17.045h-40.809c-3.908-28.563-15.154-54.786-31.782-76.708l28.862-28.862 12.053 12.053c8.777 8.777 23.006 8.776 31.782 0s8.777-23.005 0-31.782l-55.888-55.887c-8.776-8.776-23.006-8.776-31.782 0s-8.776 23.006 0 31.782l12.053 12.053-28.862 28.862c-21.922-16.628-48.145-27.874-76.708-31.782v-40.809h17.046c12.412 0 22.473-10.062 22.473-22.473s-10.061-22.473-22.473-22.473h-79.038c-12.411 0-22.473 10.062-22.473 22.473s10.062 22.473 22.473 22.473h17.045v40.809c-28.563 3.908-54.786 15.154-76.708 31.782l-28.862-28.862 12.053-12.053c8.777-8.777 8.776-23.006 0-31.782s-23.005-8.777-31.782 0l-55.887 55.888c-8.776 8.776-8.776 23.006 0 31.782s23.006 8.776 31.782 0l12.053-12.053 28.862 28.862c-16.628 21.922-27.874 48.145-31.782 76.708h-40.809v-17.046c0-12.412-10.062-22.473-22.473-22.473s-22.473 10.061-22.473 22.473v79.038c0 12.411 10.062 22.473 22.473 22.473s22.473-10.062 22.473-22.473v-17.046h40.809c3.908 28.563 15.154 54.786 31.782 76.708l-28.862 28.862-12.054-12.053c-8.777-8.777-23.006-8.776-31.782 0s-8.777 23.005 0 31.782l55.888 55.888c8.776 8.776 23.006 8.776 31.782 0s8.776-23.006 0-31.782l-12.053-12.053 28.862-28.862c21.922 16.628 48.145 27.874 76.708 31.782v40.809h-17.046c-12.412 0-22.473 10.062-22.473 22.473s10.061 22.473 22.473 22.473h79.038c12.411 0 22.473-10.062 22.473-22.473s-10.062-22.473-22.473-22.473h-17.046v-40.809c28.563-3.908 54.786-15.154 76.708-31.782l28.862 28.862-12.053 12.053c-8.777 8.777-8.776 23.006 0 31.782s23.005 8.777 31.782 0l55.888-55.888c8.776-8.776 8.776-23.005 0-31.782-8.776-8.776-23.006-8.776-31.782 0l-12.053 12.053-28.862-28.862c16.628-21.922 27.874-48.145 31.782-76.708h40.809v17.046c0 12.412 10.062 22.473 22.473 22.473s22.473-10.061 22.473-22.473v-79.038c.001-12.411-10.061-22.473-22.472-22.473z" fill="#f9ed80"/><circle cx="248.5" cy="248.5" fill="#a47cd1" r="121.232"/><path d="m278.5 359.732c-66.954 0-121.232-54.277-121.232-121.232 0-47.929 27.817-89.357 68.184-109.034-55.93 10.767-98.184 59.962-98.184 119.034 0 66.955 54.277 121.232 121.232 121.232 19.025 0 37.024-4.387 53.048-12.198-7.463 1.437-15.166 2.198-23.048 2.198z" fill="#986acb"/><g fill="#ff97c0"><ellipse cx="174.178" cy="268.688" rx="27.423" ry="21.839"/><ellipse cx="322.822" cy="268.688" rx="27.423" ry="21.839"/></g><g fill="#423e4f"><path d="m248.5 239.832c-8.063 0-15.73 3.492-21.035 9.58-2.721 3.123-2.396 7.86.727 10.582 1.421 1.238 3.176 1.846 4.924 1.846 2.093 0 4.174-.871 5.657-2.573 2.456-2.818 6.001-4.435 9.727-4.435s7.271 1.617 9.728 4.435c2.722 3.123 7.459 3.447 10.582.726 3.123-2.722 3.448-7.459.726-10.582-5.307-6.087-12.974-9.579-21.036-9.579z"/><path d="m203.145 225.228-22.481-6.024c-3.996-1.071-8.113 1.302-9.186 5.303-1.072 4.001 1.302 8.114 5.304 9.186l6.126 1.642c-.156.603-.248 1.232-.248 1.884v9.684c0 4.142 3.358 7.5 7.5 7.5s7.5-3.358 7.5-7.5v-7.615l1.604.43c.65.174 1.303.257 1.946.257 3.311 0 6.342-2.21 7.24-5.561 1.071-4.001-1.303-8.113-5.305-9.186z"/><path d="m325.521 224.508c-1.072-4.001-5.185-6.375-9.186-5.303l-22.481 6.024c-4.001 1.072-6.375 5.185-5.304 9.186.898 3.351 3.928 5.561 7.24 5.561.643 0 1.296-.083 1.946-.257l1.604-.43v7.615c0 4.142 3.358 7.5 7.5 7.5s7.5-3.358 7.5-7.5v-9.684c0-.652-.092-1.281-.248-1.884l6.126-1.642c4.001-1.072 6.375-5.185 5.303-9.186z"/></g></g></svg>