<svg id="Layer_1" enable-background="new 0 0 256 256" height="512" viewBox="0 0 256 256" width="512" xmlns="http://www.w3.org/2000/svg"><g><path d="m79.529 156.322v69.688h27.125v-6.843-40-9.451c0-.828.671-1.5 1.5-1.5s1.5.672 1.5 1.5v7.951h18.44v-9.508c0-15.378-12.511-27.889-27.888-27.889h-8.681v2.645c-.001 6.934-5.259 12.658-11.996 13.407z" fill="#cecece"/><path d="m64.534 142.915v-2.645h-8.681c-15.377 0-27.888 12.511-27.888 27.889v57.851h18.44v-56.294c0-.828.671-1.5 1.5-1.5s1.5.672 1.5 1.5v56.294h27.124v-69.688c-6.737-.75-11.995-6.473-11.995-13.407z" fill="#cecece"/><path d="m202.754 129.441h-42.108c-14.79 0-26.779-11.99-26.779-26.779v-44.108c0-14.79 11.99-26.779 26.779-26.779h42.108c14.79 0 26.779 11.99 26.779 26.779v44.108c0 14.79-11.989 26.779-26.779 26.779z" fill="#63bce7"/><g><path d="m202.754 31.775h-14.667c14.79 0 26.779 11.99 26.779 26.779v44.108c0 14.79-11.99 26.779-26.779 26.779h14.667c14.79 0 26.779-11.99 26.779-26.779v-44.108c0-14.79-11.989-26.779-26.779-26.779z" fill="#63e2e7"/></g><g><path d="m85.54 138.771h14.667c16.231 0 29.388 13.157 29.388 29.388v59.351h-14.667v-59.351c0-16.231-13.157-29.388-29.388-29.388z" fill="#e2e2e2"/></g><g><path d="m70.522 138.771h-14.667c-16.231 0-29.388 13.157-29.388 29.388v59.351h14.667v-59.351c0-16.231 13.157-29.388 29.388-29.388z" fill="#afafaf"/></g><path d="m78.031 154.91c-6.625 0-11.995-5.37-11.995-11.995v-19.125c0-6.625 5.37-11.995 11.995-11.995 6.625 0 11.995 5.37 11.995 11.995v19.125c0 6.625-5.37 11.995-11.995 11.995z" fill="#f8af23"/><path d="m66.036 123.79v19.125c0 5.9 4.263 10.794 9.875 11.797v-42.719c-5.612 1.003-9.875 5.897-9.875 11.797z" fill="#f87023"/><g><circle cx="38.357" cy="83.787" fill="#f87023" r="7.978"/><circle cx="117.705" cy="83.787" fill="#f8af23" r="7.978"/></g><path d="m79.747 132.029h-3.433c-20.963 0-37.958-16.994-37.958-37.958v-18.06c0-20.963 16.994-37.958 37.958-37.958h3.433c20.963 0 37.958 16.994 37.958 37.958v18.061c0 20.963-16.994 37.957-37.958 37.957z" fill="#f8af23"/><path d="m53.024 94.072v-18.061c0-19.055 14.041-34.826 32.341-37.541-1.833-.272-3.708-.417-5.617-.417h-3.433c-20.963 0-37.958 16.994-37.958 37.958v18.061c0 20.963 16.994 37.958 37.958 37.958h3.433c1.909 0 3.784-.145 5.617-.417-18.3-2.715-32.341-18.487-32.341-37.541z" fill="#f87023"/><path d="m75.454 74.185c-6.382-1.468-17.665-5.232-17.665-5.232-1.74-.493-3.575.382-4.287 2.044l-1.316 3.07c-2.273 5.303-6.221 9.714-11.241 12.558l-2.588 1.464-6.279-24.186c-2.512-9.775-.419-20.163 5.684-28.202l3.902-5.14c3.572-4.706 8.761-7.921 14.564-9.027 0 0 13.185-2.941 19.825-3.904 1.124-.163 2.953-.146 4.075.023 5.933.894 17.059 3.376 17.059 3.376 7.508 1.43 14.22 5.59 18.841 11.678l2.272 2.993c6.103 8.039 8.196 18.426 5.684 28.202l-6.279 24.186-2.588-1.464c-5.02-2.844-8.968-7.255-11.241-12.558l-1.316-3.07c-.712-1.662-2.548-2.537-4.287-2.044 0 0-11.284 3.763-17.665 5.232-1.418.327-3.736.327-5.154.001z" fill="#707070"/><g><path d="m52.429 35.701 3.902-5.14c3.572-4.706 8.761-7.922 14.564-9.027 0 0 7.781-1.735 14.398-2.977-1.876-.358-3.682-.681-5.165-.904-1.123-.169-2.952-.186-4.075-.023-6.64.962-19.825 3.904-19.825 3.904-5.804 1.105-10.992 4.321-14.564 9.027l-3.902 5.14c-6.103 8.039-8.196 18.427-5.684 28.202l6.279 24.186 2.588-1.464c3.843-2.177 7.05-5.277 9.365-8.988l-3.565-13.734c-2.513-9.775-.419-20.163 5.684-28.202z" fill="#5b5b5b"/></g><g fill="#3f3679"><circle cx="62.256" cy="96.373" r="3.842"/><circle cx="93.806" cy="96.373" r="3.842"/></g><path d="m108.155 179.167h27.611v40h-27.611z" fill="#63bce7"/><g><path d="m121.099 179.167h14.667v40h-14.667z" fill="#63e2e7"/></g><g><path d="m181.265 73.901c7.944 0 14.526 5.862 15.696 13.484h21.396c-1.249-19.378-17.402-34.763-37.091-34.763-19.688 0-35.841 15.385-37.09 34.763h21.396c1.168-7.621 7.75-13.484 15.693-13.484z" fill="#cecece"/><circle cx="181.266" cy="101.359" fill="#cecece" r="7.235"/><path d="m200.15 57.794-8.521 19.971c2.798 2.42 4.746 5.798 5.332 9.62h21.396c-.812-12.594-7.924-23.497-18.207-29.591z" fill="#f46275"/><path d="m199.356 83.067-15.481 10.168c-1.549 1.017-2.596 2.642-2.883 4.473l-.254 1.621c-.281 1.796 1.268 3.346 3.064 3.064l1.621-.254c1.831-.287 3.455-1.334 4.473-2.883l10.168-15.481c.305-.464-.244-1.013-.708-.708z" fill="#f8af23"/><g fill="#3f3679"><path d="m27.323 236.982h-18.003c-.829 0-1.5.672-1.5 1.5s.671 1.5 1.5 1.5h18.003c.829 0 1.5-.672 1.5-1.5s-.671-1.5-1.5-1.5z"/><path d="m246.68 236.982h-18.003c-.829 0-1.5.672-1.5 1.5s.671 1.5 1.5 1.5h18.003c.829 0 1.5-.672 1.5-1.5s-.671-1.5-1.5-1.5z"/><path d="m218.479 236.982h-180.958c-.829 0-1.5.672-1.5 1.5s.671 1.5 1.5 1.5h180.959c.829 0 1.5-.672 1.5-1.5s-.672-1.5-1.501-1.5z"/><path d="m9.32 229.01h17.147 51.564 51.564 117.085c.829 0 1.5-.672 1.5-1.5s-.671-1.5-1.5-1.5h-115.585v-5.343h4.67c.829 0 1.5-.672 1.5-1.5v-18.5h18.25c15.026 0 27.25-12.225 27.25-27.25v-42.476h19.988c15.593 0 28.279-12.686 28.279-28.279v-44.108c0-15.593-12.686-28.279-28.279-28.279h-42.108c-15.593 0-28.279 12.687-28.279 28.279v44.108c0 15.594 12.686 28.279 28.279 28.279h19.12v42.476c0 13.371-10.878 24.25-24.25 24.25h-18.25v-18.5c0-.828-.671-1.5-1.5-1.5h-4.67v-9.508c0-17.032-13.856-30.889-30.888-30.889h-8.681v-5.538c16.022-5.022 27.679-20.005 27.679-37.661v-.937c4.514-.723 7.978-4.633 7.978-9.347 0-3.361-1.826-6.467-4.694-8.156l2.948-11.355c2.643-10.28.477-21.026-5.941-29.481l-2.272-2.993c-4.854-6.394-11.87-10.742-19.709-12.234-.457-.102-11.245-2.504-17.163-3.396-1.288-.195-3.271-.204-4.513-.023-6.62.959-19.396 3.803-19.891 3.914-6.179 1.177-11.676 4.584-15.479 9.594l-3.902 5.14c-6.418 8.455-8.584 19.201-5.94 29.486l2.947 11.35c-2.869 1.689-4.694 4.792-4.694 8.157 0 4.714 3.464 8.625 7.978 9.347v.937c0 17.656 11.658 32.64 27.679 37.661v5.538h-8.681c-17.032 0-30.888 13.856-30.888 30.889v57.851h-15.648c-.829 0-1.5.672-1.5 1.5s.671 1.497 1.5 1.497zm126.046-126.348v-44.108c0-13.939 11.34-25.279 25.279-25.279h42.108c13.939 0 25.279 11.34 25.279 25.279v44.108c0 13.939-11.34 25.279-25.279 25.279h-42.108c-13.938 0-25.279-11.339-25.279-25.279zm-7.271 123.348h-18.44v-5.343h18.44zm6.171-8.343h-24.61v-37h24.61zm-34.059-77.396c15.377 0 27.888 12.511 27.888 27.889v9.508h-18.44v-7.951c0-.828-.671-1.5-1.5-1.5s-1.5.672-1.5 1.5v9.451 40 6.843h-27.124v-69.688c6.737-.749 11.995-6.473 11.995-13.407v-2.645zm23.976-56.484c0 3.054-2.128 5.616-4.978 6.295v-1.802l2.486-9.577c1.54 1.214 2.492 3.081 2.492 5.084zm-85.226-47.179 3.902-5.14c3.354-4.418 8.202-7.423 13.696-8.471.131-.029 13.205-2.939 19.713-3.883.457-.066 1.07-.099 1.697-.099.697 0 1.41.04 1.939.12 5.813.876 16.845 3.333 17.002 3.367 7.156 1.362 13.522 5.309 17.927 11.111l2.272 2.993c5.861 7.721 7.838 17.532 5.427 26.917l-5.788 22.296-.888-.502c-4.706-2.666-8.471-6.872-10.602-11.844l-1.315-3.069c-1.006-2.348-3.619-3.594-6.141-2.876-.112.037-11.287 3.758-17.527 5.192-1.192.276-3.287.276-4.481 0-6.238-1.435-17.415-5.155-17.592-5.213-2.458-.692-5.069.549-6.076 2.896l-1.315 3.069c-2.131 4.972-5.896 9.178-10.601 11.843l-.888.503-5.787-22.288c-2.413-9.388-.435-19.201 5.426-26.922zm-7.078 47.179c0-2.005.951-3.871 2.492-5.085l2.486 9.577v1.803c-2.85-.679-4.978-3.241-4.978-6.295zm7.978 10.284v-5.108l1.827-1.035c5.273-2.987 9.493-7.7 11.881-13.271l1.315-3.069c.414-.966 1.488-1.478 2.434-1.212.463.154 11.425 3.804 17.803 5.271 1.633.374 4.192.374 5.827 0 6.378-1.467 17.34-5.116 17.738-5.25 1.01-.289 2.085.226 2.5 1.191l1.315 3.069c2.388 5.571 6.607 10.284 11.881 13.272l1.827 1.034v5.108c0 20.103-16.355 36.458-36.458 36.458h-3.433c-20.102 0-36.457-16.355-36.457-36.458zm36.457 39.458h3.433c3.018 0 5.953-.352 8.778-.997v10.382c0 5.787-4.708 10.495-10.495 10.495s-10.495-4.708-10.495-10.495v-10.382c2.826.645 5.762.997 8.779.997zm-20.459 6.742h8.681v2.645c0 6.934 5.258 12.657 11.995 13.406v69.688h-27.124v-56.294c0-.828-.671-1.5-1.5-1.5s-1.5.672-1.5 1.5v56.294h-18.44v-57.851c0-15.378 12.511-27.888 27.888-27.888z"/><path d="m78.031 107.263c.829 0 1.5-.672 1.5-1.5v-6.432c0-.828-.671-1.5-1.5-1.5s-1.5.672-1.5 1.5v6.432c0 .828.671 1.5 1.5 1.5z"/><path d="m67.874 85.812-11.641 1.582c-.821.111-1.396.867-1.284 1.688.102.752.746 1.298 1.484 1.298.067 0 .135-.004.204-.014l11.641-1.582c.821-.111 1.396-.867 1.284-1.688-.111-.821-.866-1.406-1.688-1.284z"/><path d="m87.784 88.784 11.641 1.582c.069.01.137.014.204.014.739 0 1.382-.546 1.484-1.298.111-.821-.463-1.577-1.284-1.688l-11.641-1.582c-.823-.116-1.577.464-1.688 1.284-.112.821.463 1.577 1.284 1.688z"/><path d="m83.121 118.039c.297.338.711.511 1.128.511.351 0 .704-.122.988-.372.623-.546.685-1.494.139-2.117-1.86-2.121-4.538-3.338-7.346-3.338s-5.485 1.217-7.346 3.338c-.546.623-.484 1.571.139 2.117.623.547 1.571.484 2.117-.139 1.291-1.473 3.146-2.316 5.09-2.316s3.8.843 5.091 2.316z"/><path d="m218.356 88.886c.415 0 .811-.172 1.094-.474.284-.303.429-.709.403-1.123-1.308-20.28-18.257-36.167-38.588-36.167-20.33 0-37.279 15.887-38.587 36.167-.026.414.119.82.403 1.123.284.302.68.474 1.094.474h21.396c.741 0 1.371-.541 1.482-1.272 1.068-6.962 7.178-12.212 14.212-12.212 5.917 0 11.139 3.573 13.327 8.999l-11.541 7.581c-.322.211-.62.452-.905.704-.292-.029-.585-.062-.881-.062-4.816 0-8.735 3.919-8.735 8.735s3.918 8.734 8.735 8.734c4.782 0 8.675-3.864 8.73-8.634.431-.414.821-.874 1.155-1.381l7.352-11.193h19.854zm-54.023-3h-18.522c1.965-17.938 17.239-31.764 35.455-31.764 6.123 0 11.911 1.568 16.976 4.323l-7.231 16.948c-2.804-1.901-6.166-2.992-9.744-2.992-8.07 0-15.131 5.713-16.934 13.485zm29.096-8.518 7.408-17.362c8.633 5.692 14.695 15.03 15.883 25.88h-16.248l.846-1.288c.529-.806.423-1.844-.259-2.525-.682-.683-1.72-.79-2.526-.26 0 0 0 0-.001 0l-1.4.92c-.905-2.042-2.165-3.854-3.703-5.365zm-12.163 29.726c-3.162 0-5.735-2.572-5.735-5.734 0-2.718 1.903-4.996 4.445-5.583-.214.544-.374 1.113-.465 1.7l-.254 1.62c-.209 1.336.219 2.649 1.175 3.605.796.796 1.841 1.226 2.939 1.226.22 0 .442-.018.665-.053l1.621-.254c.327-.051.647-.128.962-.218-.827 2.154-2.911 3.691-5.353 3.691zm7.376-8.661c-.783 1.192-2.041 2.003-3.451 2.225l-1.622.254c-.377.058-.748-.062-1.018-.332-.271-.27-.391-.641-.332-1.019l.254-1.62c.221-1.41 1.031-2.668 2.225-3.451l11.492-7.549z"/></g></g></g></svg>