<svg height="512" viewBox="0 0 58 58" width="512" xmlns="http://www.w3.org/2000/svg"><g id="020---Transfusion" fill="none" transform="translate(-1)"><path id="Shape" d="m23 26.16c2.0083991-2.0461866 4.7629777-3.1870081 7.63-3.16 5.93 0 10.37 3.65 10.37 10.94s-4.44 10.21-7.41 13.12-12.59 10.94-12.59 10.94-9.63-8.02-12.59-10.94-7.41-5.83-7.41-13.12 4.44-10.94 10.37-10.94c2.8670223-.0270081 5.6216009 1.1138134 7.63 3.16z" fill="#9fc9d3"/><path id="Shape" d="m41 33.94c.0830576 3.7495961-1.4031421 7.3635988-4.1 9.97-.725.776-1.924 1.849-2.59 2.47-1.034.952-3.12 3.134-13.31 11.62-10.747-8.951-12.6-11-13.31-11.62-.663-.619-1.864-1.692-2.59-2.47-2.69675482-2.6064711-4.18293514-6.2204267-4.1-9.97 0-7.29 4.44-10.94 10.37-10.94.25 0 .5.01.74.03-4.77.24-8.25 3.37-8.25 9.35-.06621577 2.4420608.66385921 4.8393743 2.08 6.83 2.129 3.004 12.128 11.349 15.06 13.79 2.806-2.337 12.947-10.8 15.06-13.78 1.4146666-1.9951269 2.1444755-4.3950755 2.08-6.84 0-5.98-3.48-9.11-8.25-9.35.24-.02.49-.03.74-.03 5.93 0 10.37 3.65 10.37 10.94z" fill="#84b5cb"/><path id="Shape" d="m5 34.94c-.55228475 0-1-.4477153-1-1 0-5.12 2.617-7.94 7.37-7.94.5522847 0 1 .4477153 1 1s-.4477153 1-1 1c-3.664 0-5.37 1.888-5.37 5.94 0 .5522847-.44771525 1-1 1z" fill="#ecf0f1"/><path id="Shape" d="m23 30v-16.5c.0000001-5.24670505 4.253295-9.4999998 9.5-9.4999998s9.4999999 4.25329475 9.5 9.4999998v8c0 4.6944204 3.8055796 8.5 8.5 8.5s8.5-3.8055796 8.5-8.5v-20.5c0-.55228475-.4477153-1-1-1h-2c-.5522847 0-1 .44771525-1 1v20.5c0 2.4852814-2.0147186 4.5-4.5 4.5s-4.5-2.0147186-4.5-4.5v-8c0-7.45584412-6.0441559-13.5-13.5-13.5s-13.5 6.04415588-13.5 13.5v16.5z" fill="#9fc9d3"/><path id="Shape" d="m23 36c0 1.1045695-.8954305 2-2 2s-2-.8954305-2-2c.1013664-1.2791476.8582354-2.4144512 2-3 1.1417646.5855488 1.8986336 1.7208524 2 3z" fill="#e64c3c"/><path id="Shape" d="m36.06 39.22c-2.113 2.98-12.254 11.443-15.06 13.78-2.9-2.418-12.932-10.788-15.06-13.79.76146165-.1440758 1.53504045-.2144011 2.31-.21 6.37 0 6.37 4 12.73 4s6.37-4 12.75-4c.7821613-.0068871 1.5629508.0668356 2.33.22z" fill="#e64c3c"/><path id="Shape" d="m39.41 40.58c-.7545605 1.3379249-1.6975385 2.5604285-2.8 3.63-3.792 3.842-11.444 10.32-15.61 13.79-4.164-3.468-11.817-9.948-15.61-13.79-1.10214097-1.0698576-2.04508138-2.2923125-2.8-3.63 1.02307944-.6584777 2.15868913-1.1228912 3.35-1.37 2.129 3.004 12.128 11.349 15.06 13.79 2.806-2.337 12.947-10.8 15.06-13.78 1.1919904.2395143 2.3283691.7008501 3.35 1.36z" fill="#c03a2b"/></g></svg>
