<?xml version="1.0" encoding="iso-8859-1"?>
<!-- Generator: Adobe Illustrator 19.0.0, SVG Export Plug-In . SVG Version: 6.00 Build 0)  -->
<svg version="1.1" id="Layer_1" xmlns="http://www.w3.org/2000/svg" xmlns:xlink="http://www.w3.org/1999/xlink" x="0px" y="0px"
	 viewBox="0 0 512.003 512.003" style="enable-background:new 0 0 512.003 512.003;" xml:space="preserve">
<g>
	<rect x="107.39" y="112.482" style="fill:#E04F5F;" width="297.04" height="72"/>
	<rect x="219.902" y="0.002" style="fill:#E04F5F;" width="72" height="297.04"/>
</g>
<g>
	<path style="fill:#415E72;" d="M294.446,512.002c0,0-38.768-75.632,35.784-128s95.416-81.424,95.416-81.424
		s41.744-11.632,23.856,23.272c-12.008,22.28-28.208,42.024-47.712,58.152c0,0,56.656-11.632,71.568-58.176s0-72.72,35.784-81.448
		c0,0,17.888,87.264-35.784,139.624s-116.296,72.72-119.28,128H294.446z"/>
	<path style="fill:#415E72;" d="M217.566,512.002c0,0,38.768-75.632-35.784-128s-95.424-81.424-95.424-81.424
		s-41.744-11.632-23.856,23.272c12.008,22.28,28.208,42.024,47.712,58.152c0,0-56.656-11.632-71.568-58.176s0-72.72-35.784-81.448
		c0,0-17.888,87.264,35.784,139.624s116.296,72.72,119.28,128H217.566z"/>
</g>
<g>
</g>
<g>
</g>
<g>
</g>
<g>
</g>
<g>
</g>
<g>
</g>
<g>
</g>
<g>
</g>
<g>
</g>
<g>
</g>
<g>
</g>
<g>
</g>
<g>
</g>
<g>
</g>
<g>
</g>
</svg>
